<svg width="40" height="40" viewBox="0 0 40 40" fill="none" xmlns="http://www.w3.org/2000/svg">
<path d="M20 40C31.0457 40 40 31.0457 40 20C40 8.9543 31.0457 0 20 0C8.9543 0 0 8.9543 0 20C0 31.0457 8.9543 40 20 40Z" fill="#FF4500"/>
<path d="M33.3333 20C33.3333 18.386 32.0234 17.076 30.4094 17.076C29.614 17.076 28.9123 17.3801 28.3977 17.8948C26.4094 16.4679 23.6491 15.5322 20.6082 15.4152L21.9415 9.16961L26.269 10.0819C26.3158 11.1813 27.2281 12.0702 28.3509 12.0702C29.4971 12.0702 30.4328 11.1345 30.4328 9.98832C30.4328 8.84212 29.4971 7.90645 28.3509 7.90645C27.5322 7.90645 26.8304 8.37428 26.5029 9.07604L21.6608 8.0468C21.5205 8.02341 21.3801 8.0468 21.2632 8.11698C21.1462 8.18715 21.076 8.30411 21.0293 8.44446L19.5556 15.4152C16.4445 15.5088 13.6608 16.4211 11.6491 17.8948C11.1345 17.4035 10.4094 17.076 9.63744 17.076C8.0234 17.076 6.71346 18.386 6.71346 20C6.71346 21.193 7.41522 22.1988 8.44446 22.6667C8.39767 22.9474 8.37428 23.2515 8.37428 23.5556C8.37428 28.0468 13.5907 31.6725 20.0468 31.6725C26.5029 31.6725 31.7193 28.0468 31.7193 23.5556C31.7193 23.2515 31.6959 22.9708 31.6491 22.6901C32.6082 22.2222 33.3333 21.193 33.3333 20ZM13.3333 22.0819C13.3333 20.9357 14.269 20 15.4152 20C16.5614 20 17.4971 20.9357 17.4971 22.0819C17.4971 23.2281 16.5614 24.1638 15.4152 24.1638C14.269 24.1638 13.3333 23.2281 13.3333 22.0819ZM24.9591 27.579C23.5322 29.0059 20.8187 29.0994 20.0234 29.0994C19.2281 29.0994 16.4912 28.9825 15.0877 27.579C14.8772 27.3684 14.8772 27.0176 15.0877 26.807C15.2983 26.5965 15.6491 26.5965 15.8597 26.807C16.7485 27.6959 18.6667 28.0234 20.0468 28.0234C21.4269 28.0234 23.3216 27.6959 24.2339 26.807C24.4445 26.5965 24.7953 26.5965 25.0059 26.807C25.1696 27.041 25.1696 27.3684 24.9591 27.579ZM24.5848 24.1638C23.4386 24.1638 22.5029 23.2281 22.5029 22.0819C22.5029 20.9357 23.4386 20 24.5848 20C25.731 20 26.6667 20.9357 26.6667 22.0819C26.6667 23.2281 25.731 24.1638 24.5848 24.1638Z" fill="white"/>
</svg>
