<svg width="215" height="65" viewBox="0 0 215 65" fill="none" xmlns="http://www.w3.org/2000/svg">
<path d="M54.3524 20.5385V44.4615C54.3524 46.6731 53.1787 48.7186 51.2694 49.8346L30.9415 61.7164C29.0013 62.8504 26.6003 62.8504 24.6601 61.7163L4.33299 49.8346C2.42365 48.7186 1.25 46.6731 1.25 44.4615V20.5385C1.25 18.3269 2.42365 16.2814 4.33299 15.1654L24.6601 3.28367C26.6003 2.14957 29.0012 2.14955 30.9415 3.28362L51.2694 15.1654C53.1787 16.2814 54.3524 18.3269 54.3524 20.5385Z" stroke="url(#paint0_linear_111_14688)" stroke-width="2.5"/>
<path fill-rule="evenodd" clip-rule="evenodd" d="M26.5933 32.8807C24.9983 31.3038 23.0313 32.7715 21.82 31.54C21.0926 30.8003 22.1383 28.9512 24.2746 29.8066C26.4113 30.6616 26.5933 32.8807 26.5933 32.8807ZM28.8687 32.8807C30.4638 31.3038 32.4308 32.7715 33.642 31.54C34.3695 30.8003 33.3238 28.9512 31.1872 29.8066C29.0505 30.6616 28.8687 32.8807 28.8687 32.8807ZM27.7593 27.612V27.4736L27.731 27.5413L27.7025 27.4736V27.612L27.6909 27.6415C27.478 27.0808 26.645 25.2816 24.8084 25.5649C22.638 25.8999 21.2057 27.1713 19.0238 26.6165C16.8418 26.0616 16.9327 24.12 16.2962 23.4959C15.6597 22.8719 14.7052 23.3803 14.7052 23.3803C16.3614 22.5536 18.4147 23.1043 20.3447 23.7704C20.3845 24.417 20.9152 24.9289 21.5638 24.9289C21.9268 24.9289 22.2528 24.7689 22.4764 24.5145C24.3413 25.1184 25.8443 25.3106 26.3654 23.5882C26.3654 23.5882 26.411 24.4897 27.0244 24.8824C27.2838 25.0486 27.4861 25.1073 27.6335 25.1199C27.6499 25.121 27.6673 25.1225 27.6857 25.1225H27.6955L27.7307 25.1216L27.7654 25.1225H27.7752C27.7936 25.1225 27.811 25.1216 27.8274 25.1204C27.9748 25.1079 28.1771 25.0486 28.4365 24.8824C29.0502 24.4894 29.0958 23.5882 29.0958 23.5882C29.6169 25.3103 31.1199 25.1181 32.9848 24.5145C33.2087 24.7689 33.5344 24.9289 33.8974 24.9289C34.5463 24.9289 35.0767 24.417 35.1165 23.7704C37.0465 23.1046 39.0998 22.5536 40.756 23.3803C40.756 23.3803 39.8015 22.8719 39.165 23.4959C38.5285 24.12 38.6193 26.0616 36.4374 26.6165C34.2555 27.1713 32.8232 25.8999 30.6528 25.5649C28.8165 25.2814 27.9832 27.0808 27.7703 27.6415L27.7593 27.612ZM25.4317 21.5989C25.4317 21.5989 22.1616 18.6112 18.4372 17.7378C14.7127 16.8643 13.6226 18.0596 13.6226 18.0596C13.6226 18.0596 14.2629 17.9261 14.8994 18.0415C15.5359 18.1571 15.6381 18.2958 15.6381 18.2958C12.5025 19.1474 11.2148 23.597 12.5152 25.9002C12.4855 25.4694 12.6228 24.5741 12.8502 24.0817C12.9116 27.8915 14.9375 30.4925 17.9334 29.622C17.9334 29.622 16.8978 29.6874 15.7691 28.7921C18.32 29.3963 21.7404 27.7966 22.559 27.7843C24.8546 27.7495 25.9796 29.5986 25.9796 29.5986C21.1901 26.5698 18.3154 31.1668 21.934 33.4586C21.934 33.4586 21.2522 33.5976 20.2749 33.2507C19.2976 32.9038 18.8201 32.2336 18.8201 32.2336C18.8201 32.2336 17.8468 32.77 16.9838 34.7006C16.1208 36.6315 16.0755 38.3322 16.0755 38.3322L17.6838 36.6484C17.1315 37.6909 16.6572 39.5943 16.5392 41.2562C22.7035 43.6009 32.7597 43.6009 38.924 41.2562C38.806 39.5943 38.3317 37.6909 37.7794 36.6484L39.3877 38.3322C39.3877 38.3322 39.3424 36.6315 38.4794 34.7006C37.6164 32.77 36.6431 32.2336 36.6431 32.2336C36.6431 32.2336 36.1659 32.9041 35.1883 33.2507C34.2108 33.5973 33.5289 33.4586 33.5289 33.4586C37.1475 31.1665 34.2725 26.5698 29.4833 29.5986C29.4833 29.5986 30.6083 27.7495 32.904 27.7843C33.7225 27.7966 37.1426 29.396 39.6939 28.7921C38.5648 29.6874 37.5292 29.622 37.5292 29.622C40.5251 30.4925 42.551 27.8918 42.6124 24.0817C42.8401 24.5741 42.9774 25.4694 42.9474 25.9002C44.2479 23.597 42.9604 19.1477 39.8249 18.2958C39.8249 18.2958 39.927 18.1571 40.5635 18.0415C41.2 17.9259 41.8403 18.0596 41.8403 18.0596C41.8403 18.0596 40.7502 16.8643 37.0257 17.7378C33.3013 18.6112 30.031 21.5992 30.031 21.5992C30.031 21.5992 30.1086 20.7459 30.9606 19.8097C31.813 18.8735 31.7789 18.1802 31.7789 18.1802C28.7972 21.8191 26.6663 21.8191 23.6846 18.1802C23.6846 18.1802 23.6505 18.8735 24.5029 19.8097C25.3552 20.7459 25.4325 21.5992 25.4325 21.5992L25.4317 21.5989Z" fill="url(#paint1_linear_111_14688)"/>
<path fill-rule="evenodd" clip-rule="evenodd" d="M27.7201 51.987V51.968L27.7313 51.9645L27.7423 51.968V51.987L27.7709 51.9776L27.7997 51.987V51.968C30.3097 51.1404 32.8486 49.4753 34.3738 46.9761C34.3862 47.934 34.1496 48.9438 33.4199 50.0561C35.1153 49.557 38.4194 46.0367 38.8808 42.6959C32.7271 45.0193 22.7353 45.0193 16.5816 42.6959C17.043 46.0367 20.347 49.5567 22.0425 50.0561C21.3128 48.9438 21.0762 47.934 21.0886 46.9761C22.6135 49.4753 25.1527 51.1404 27.6624 51.968V51.987L27.6912 51.9776L27.7201 51.987Z" fill="url(#paint2_linear_111_14688)"/>
<path fill-rule="evenodd" clip-rule="evenodd" d="M10.2978 21.0014C8.8136 14.8414 1.83759 20.6002 7.8747 29.8614C8.07263 28.4702 8.3655 27.1295 8.75474 25.9094C7.6456 24.4534 8.18805 22.1429 9.07156 21.8748C8.86237 20.83 7.60722 20.9097 7.18624 21.8269C7.45978 19.5681 9.46541 19.3237 10.2978 21.0014Z" fill="url(#paint3_linear_111_14688)"/>
<path fill-rule="evenodd" clip-rule="evenodd" d="M45.0847 21.0014C46.569 14.8414 53.545 20.6002 47.5079 29.8614C47.3099 28.4702 47.0174 27.1295 46.6278 25.9094C47.7367 24.4534 47.1942 22.1429 46.311 21.8748C46.5202 20.83 47.7753 20.9097 48.196 21.8269C47.9225 19.5681 45.9172 19.3237 45.0847 21.0014Z" fill="url(#paint4_linear_111_14688)"/>
<path d="M76.76 41H81.704L82.688 38.312H88.928L89.912 41H95.096L88.88 24.92H82.952L76.76 41ZM83.984 34.544L85.808 29.12L87.632 34.544H83.984ZM97.4754 41H102.323V36.224H106.931C111.587 36.224 113.243 34.736 113.243 30.584C113.243 26.432 111.587 24.92 106.931 24.92H97.4754V41ZM102.323 32.312V28.832H106.235C107.867 28.832 108.419 29.264 108.419 30.584C108.419 31.904 107.867 32.312 106.235 32.312H102.323ZM116.482 41H131.41V36.992H121.33V34.784H129.514V30.944H121.33V28.928H131.218V24.92H116.482V41ZM143.3 41.288C145.316 41.288 146.66 41.072 148.628 40.496L148.388 36.416C146.444 36.92 145.196 37.136 143.684 37.136C140.396 37.136 139.364 36.128 139.364 32.96C139.364 29.792 140.396 28.784 143.684 28.784C145.196 28.784 146.444 29 148.388 29.504L148.628 25.424C146.66 24.848 145.316 24.632 143.3 24.632C136.772 24.632 134.372 26.864 134.372 32.96C134.372 39.056 136.772 41.288 143.3 41.288ZM151.777 41H156.625V35.84H159.073L162.721 41H168.601L164.473 35.456C166.609 34.784 167.425 33.248 167.425 30.392C167.425 26.384 165.793 24.92 161.209 24.92H151.777V41ZM156.625 31.976V28.832H160.513C162.049 28.832 162.601 29.24 162.601 30.416C162.601 31.52 162.097 31.976 160.513 31.976H156.625ZM179.415 41.288C185.991 41.288 188.295 39.128 188.295 32.96C188.295 26.792 185.991 24.632 179.415 24.632C172.839 24.632 170.535 26.792 170.535 32.96C170.535 39.128 172.839 41.288 179.415 41.288ZM179.415 37.256C176.319 37.256 175.527 36.368 175.527 32.96C175.527 29.552 176.319 28.664 179.415 28.664C182.511 28.664 183.303 29.552 183.303 32.96C183.303 36.368 182.511 37.256 179.415 37.256ZM191.924 41H196.508V30.776L203.492 41H208.076V24.92H203.492V33.776L197.444 24.92H191.924V41Z" fill="url(#paint5_linear_111_14688)"/>
<defs>
<linearGradient id="paint0_linear_111_14688" x1="16.2434" y1="6.25" x2="40" y2="60.6179" gradientUnits="userSpaceOnUse">
<stop offset="0.242708" stop-color="white"/>
<stop offset="0.654167" stop-color="#C6C6C6" stop-opacity="0.6"/>
<stop offset="1" stop-color="#1A82FF" stop-opacity="0.3"/>
</linearGradient>
<linearGradient id="paint1_linear_111_14688" x1="13.7443" y1="12.5001" x2="39.3736" y2="51.8656" gradientUnits="userSpaceOnUse">
<stop offset="0.357292" stop-color="white"/>
<stop offset="1" stop-color="#646464"/>
</linearGradient>
<linearGradient id="paint2_linear_111_14688" x1="13.7443" y1="12.5001" x2="39.3736" y2="51.8656" gradientUnits="userSpaceOnUse">
<stop offset="0.357292" stop-color="white"/>
<stop offset="1" stop-color="#646464"/>
</linearGradient>
<linearGradient id="paint3_linear_111_14688" x1="13.7443" y1="12.5001" x2="39.3736" y2="51.8656" gradientUnits="userSpaceOnUse">
<stop offset="0.357292" stop-color="white"/>
<stop offset="1" stop-color="#646464"/>
</linearGradient>
<linearGradient id="paint4_linear_111_14688" x1="13.7443" y1="12.5001" x2="39.3736" y2="51.8656" gradientUnits="userSpaceOnUse">
<stop offset="0.357292" stop-color="white"/>
<stop offset="1" stop-color="#646464"/>
</linearGradient>
<linearGradient id="paint5_linear_111_14688" x1="146.337" y1="26" x2="145.594" y2="47.9863" gradientUnits="userSpaceOnUse">
<stop offset="0.336458" stop-color="white"/>
<stop offset="1" stop-color="#646464"/>
</linearGradient>
</defs>
</svg>
