<svg width="228" height="84" viewBox="0 0 228 84" fill="none" xmlns="http://www.w3.org/2000/svg">
<path d="M70.75 25.293V58.707C70.75 60.9206 69.5743 62.9676 67.6622 64.0829L39.1354 80.7235C37.1976 81.854 34.8013 81.8539 32.8635 80.7235L4.33769 64.083C2.4257 62.9676 1.25 60.9206 1.25 58.7071V25.2929C1.25 23.0794 2.4257 21.0324 4.33769 19.917L32.8635 3.2765C34.8013 2.14606 37.1976 2.14604 39.1354 3.27645L67.6622 19.9171C69.5743 21.0324 70.75 23.0794 70.75 25.293Z" stroke="white" stroke-width="2.5"/>
<path fill-rule="evenodd" clip-rule="evenodd" d="M34.436 42.4917C32.3705 40.4539 29.8235 42.3506 28.255 40.7592C27.313 39.8032 28.6671 37.4136 31.4335 38.519C34.2002 39.624 34.4356 42.4917 34.4356 42.4917H34.436ZM37.3824 42.4917C39.4479 40.4539 41.9949 42.3506 43.5634 40.7592C44.5053 39.8032 43.1513 37.4136 40.3845 38.519C37.6178 39.624 37.3824 42.4917 37.3824 42.4917ZM35.9458 35.683V35.5041L35.9092 35.5916L35.8722 35.5041V35.683L35.8572 35.7211C35.5815 34.9965 34.5028 32.6714 32.1247 33.0375C29.3142 33.4703 27.4595 35.1135 24.6341 34.3964C21.8087 33.6794 21.9264 31.1702 21.1022 30.3637C20.2779 29.5572 19.042 30.2143 19.042 30.2143C21.1866 29.1459 23.8454 29.8576 26.3446 30.7185C26.3961 31.554 27.0833 32.2155 27.9232 32.2155C28.3932 32.2155 28.8154 32.0087 29.105 31.68C31.5198 32.4605 33.466 32.7088 34.1408 30.483C34.1408 30.483 34.1998 31.648 34.9942 32.1555C35.3301 32.3703 35.592 32.4461 35.7829 32.4624V32.4631C35.8042 32.4646 35.8266 32.4657 35.8505 32.4657H35.8632L35.9088 32.4646L35.9536 32.4657H35.9664C35.9903 32.4657 36.0127 32.4646 36.034 32.4631V32.4624C36.2249 32.4461 36.4868 32.3703 36.8227 32.1555C37.6174 31.6476 37.6765 30.483 37.6765 30.483C38.3512 32.7084 40.2975 32.4601 42.7123 31.68C43.0022 32.0087 43.424 32.2155 43.8941 32.2155C44.7344 32.2155 45.4211 31.554 45.4727 30.7185C47.9719 29.858 50.6307 29.1459 52.7753 30.2143C52.7753 30.2143 51.5393 29.5572 50.7151 30.3637C49.8909 31.1702 50.0086 33.6794 47.1832 34.3964C44.3577 35.1135 42.503 33.4703 39.6926 33.0375C37.3148 32.671 36.2357 34.9965 35.96 35.7211L35.9454 35.683H35.9458ZM32.9317 27.9122C32.9317 27.9122 28.6973 24.0512 23.8745 22.9224C19.0517 21.7937 17.6401 23.3383 17.6401 23.3383C17.6401 23.3383 18.4692 23.1659 19.2934 23.3149C20.1176 23.4644 20.2499 23.6436 20.2499 23.6436C16.1896 24.7441 14.5221 30.4943 16.2061 33.4707C16.1676 32.9141 16.3455 31.757 16.6399 31.1207C16.7195 36.0441 19.3427 39.4055 23.2221 38.2805C23.2221 38.2805 21.8812 38.365 20.4195 37.208C23.7228 37.9888 28.1518 35.9215 29.2118 35.9056C32.1845 35.8607 33.6412 38.2503 33.6412 38.2503C27.4393 34.3361 23.7168 40.2769 28.4026 43.2386C28.4026 43.2386 27.5197 43.4182 26.2542 42.9699C24.9887 42.5215 24.3703 41.6554 24.3703 41.6554C24.3703 41.6554 23.1101 42.3487 21.9925 44.8436C20.875 47.3389 20.8163 49.5368 20.8163 49.5368L22.899 47.3608C22.1838 48.708 21.5696 51.1678 21.4168 53.3155C29.399 56.3455 42.4208 56.3455 50.4031 53.3155C50.2503 51.1678 49.636 48.708 48.9209 47.3608L51.0035 49.5368C51.0035 49.5368 50.9449 47.3389 49.8273 44.8436C48.7098 42.3487 47.4496 41.6554 47.4496 41.6554C47.4496 41.6554 46.8316 42.5219 45.5657 42.9699C44.2998 43.4178 43.4169 43.2386 43.4169 43.2386C48.1027 40.2765 44.3798 34.3361 38.1783 38.2503C38.1783 38.2503 39.635 35.8607 42.6077 35.9056C43.6677 35.9215 48.0963 37.9884 51.4 37.208C49.9379 38.365 48.597 38.2805 48.597 38.2805C52.4764 39.4055 55.0997 36.0445 55.1792 31.1207C55.474 31.757 55.6519 32.9141 55.613 33.4707C57.297 30.4943 55.6298 24.7445 51.5696 23.6436C51.5696 23.6436 51.7019 23.4644 52.5261 23.3149C53.3503 23.1655 54.1794 23.3383 54.1794 23.3383C54.1794 23.3383 52.7678 21.7937 47.945 22.9224C43.1221 24.0512 38.8874 27.9126 38.8874 27.9126C38.8874 27.9126 38.9879 26.8099 40.0912 25.6C41.195 24.3901 41.1509 23.4942 41.1509 23.4942C37.2898 28.1968 34.5305 28.1968 30.6694 23.4942C30.6694 23.4942 30.6253 24.3901 31.729 25.6C32.8327 26.8099 32.9328 27.9126 32.9328 27.9126L32.9317 27.9122Z" fill="white"/>
<path fill-rule="evenodd" clip-rule="evenodd" d="M35.895 67.1829V67.1584L35.9096 67.1539L35.9238 67.1584V67.1829L35.9608 67.1708L35.9982 67.1829V67.1584C39.2484 66.0889 42.536 63.937 44.511 60.7074C44.527 61.9452 44.2207 63.2502 43.2758 64.6876C45.4712 64.0427 49.7497 59.4933 50.3471 55.176C42.3787 58.1785 29.4402 58.1785 21.4717 55.176C22.0692 59.4933 26.3476 64.0423 28.5431 64.6876C27.5982 63.2502 27.2918 61.9452 27.3079 60.7074C29.2825 63.937 32.5705 66.0889 35.8203 67.1584V67.1829L35.8577 67.1708L35.895 67.1829Z" fill="white"/>
<path fill-rule="evenodd" clip-rule="evenodd" d="M13.3348 27.14C11.4129 19.1795 2.37957 26.6215 10.1971 38.5899C10.4534 36.792 10.8326 35.0595 11.3366 33.4828C9.90041 31.6011 10.6028 28.6152 11.7469 28.2688C11.476 26.9185 9.85071 27.0215 9.30558 28.2069C9.65979 25.2878 12.2569 24.972 13.3348 27.14Z" fill="white"/>
<path fill-rule="evenodd" clip-rule="evenodd" d="M58.3806 27.14C60.3026 19.1795 69.3359 26.6215 61.5184 38.5899C61.2621 36.792 60.8832 35.0595 60.3788 33.4828C61.8147 31.6011 61.1122 28.6152 59.9686 28.2688C60.2394 26.9185 61.8647 27.0215 62.4095 28.2069C62.0553 25.2878 59.4582 24.972 58.3802 27.14" fill="white"/>
<path d="M85.3414 50H90.2854L91.2694 47.312H97.5094L98.4934 50H103.677L97.4614 33.92H91.5334L85.3414 50ZM92.5654 43.544L94.3894 38.12L96.2134 43.544H92.5654ZM105.097 50H109.945V45.224H114.553C119.209 45.224 120.865 43.736 120.865 39.584C120.865 35.432 119.209 33.92 114.553 33.92H105.097V50ZM109.945 41.312V37.832H113.857C115.489 37.832 116.041 38.264 116.041 39.584C116.041 40.904 115.489 41.312 113.857 41.312H109.945ZM123.144 50H138.072V45.992H127.992V43.784H136.176V39.944H127.992V37.928H137.88V33.92H123.144V50ZM149.002 50.288C151.018 50.288 152.362 50.072 154.33 49.496L154.09 45.416C152.146 45.92 150.898 46.136 149.386 46.136C146.098 46.136 145.066 45.128 145.066 41.96C145.066 38.792 146.098 37.784 149.386 37.784C150.898 37.784 152.146 38 154.09 38.504L154.33 34.424C152.362 33.848 151.018 33.632 149.002 33.632C142.474 33.632 140.074 35.864 140.074 41.96C140.074 48.056 142.474 50.288 149.002 50.288ZM156.519 50H161.367V44.84H163.815L167.463 50H173.343L169.215 44.456C171.351 43.784 172.167 42.248 172.167 39.392C172.167 35.384 170.535 33.92 165.951 33.92H156.519V50ZM161.367 40.976V37.832H165.255C166.791 37.832 167.343 38.24 167.343 39.416C167.343 40.52 166.839 40.976 165.255 40.976H161.367ZM183.196 50.288C189.772 50.288 192.076 48.128 192.076 41.96C192.076 35.792 189.772 33.632 183.196 33.632C176.62 33.632 174.316 35.792 174.316 41.96C174.316 48.128 176.62 50.288 183.196 50.288ZM183.196 46.256C180.1 46.256 179.308 45.368 179.308 41.96C179.308 38.552 180.1 37.664 183.196 37.664C186.292 37.664 187.084 38.552 187.084 41.96C187.084 45.368 186.292 46.256 183.196 46.256ZM194.745 50H199.329V39.776L206.313 50H210.897V33.92H206.313V42.776L200.265 33.92H194.745V50Z" fill="white"/>
</svg>
