<?xml version="1.0" standalone="no"?>
<!DOCTYPE svg PUBLIC "-//W3C//DTD SVG 20010904//EN"
 "http://www.w3.org/TR/2001/REC-SVG-20010904/DTD/svg10.dtd">
<svg version="1.0" xmlns="http://www.w3.org/2000/svg"
 width="260.000000pt" height="260.000000pt" viewBox="0 0 260.000000 260.000000"
 preserveAspectRatio="xMidYMid meet">
<metadata>
Created by potrace 1.14, written by Peter Selinger 2001-2017
</metadata>
<g transform="translate(0.000000,260.000000) scale(0.100000,-0.100000)"
fill="#000000" stroke="none">
<path d="M1270 2563 c-36 -10 -99 -40 -147 -70 -29 -18 -54 -33 -57 -33 -3 0
-38 -19 -78 -43 -109 -65 -188 -111 -468 -272 -140 -81 -266 -156 -278 -168
-13 -12 -33 -40 -44 -62 -20 -38 -21 -56 -21 -610 0 -509 2 -574 17 -610 9
-21 24 -48 34 -58 15 -17 117 -87 126 -87 2 0 81 -46 177 -101 96 -56 190
-111 209 -121 19 -11 134 -78 255 -148 121 -70 236 -131 255 -136 68 -16 120
-3 215 55 17 10 104 61 195 113 91 52 208 120 260 150 479 276 451 258 483
328 19 43 20 65 20 615 0 555 -1 571 -21 610 -11 22 -31 50 -44 62 -19 17
-288 177 -508 301 -25 14 -140 80 -255 147 -116 67 -220 125 -230 129 -29 9
-78 13 -95 9z"/>
</g>
</svg>
