<svg width="90" height="90" viewBox="0 0 90 90" fill="none" xmlns="http://www.w3.org/2000/svg">
<rect width="90" height="90" rx="8" fill="#1A82FF"/>
<path d="M69.3515 30.4489C69.3207 28.829 69.2913 27.2986 69.2913 25.8182C69.2913 24.6583 68.3513 23.718 67.1912 23.718C58.2095 23.718 51.3712 21.1368 45.6711 15.5947C44.8557 14.8016 43.5581 14.8019 42.7429 15.5947C37.0434 21.1368 30.2062 23.718 21.2251 23.718C20.0652 23.718 19.1249 24.6583 19.1249 25.8182C19.1249 27.2989 19.0958 28.8298 19.0647 30.45C18.7769 45.5251 18.3826 66.1713 43.5191 74.8841C43.742 74.9614 43.9744 75 44.2069 75C44.4393 75 44.672 74.9614 44.8946 74.8841C70.0331 66.171 69.6394 45.5243 69.3515 30.4489ZM44.2071 70.6712C22.6493 62.8399 22.9752 45.6845 23.2645 30.5301C23.2818 29.6206 23.2986 28.7391 23.3104 27.8749C31.7222 27.5199 38.4488 24.9708 44.2071 19.9546C49.966 24.9708 56.6938 27.5201 65.1061 27.8749C65.1179 28.7388 65.1347 29.6197 65.1521 30.5287C65.441 45.6836 65.7667 62.8396 44.2071 70.6712Z" fill="white"/>
<path d="M51.4393 37.7045L41.3028 47.8403L36.9774 43.5149C36.1572 42.695 34.8274 42.695 34.0075 43.5149C33.1873 44.3353 33.1873 45.6649 34.0075 46.4851L39.8179 52.2955C40.2278 52.7054 40.7655 52.9104 41.3028 52.9104C41.8402 52.9104 42.3778 52.7054 42.7878 52.2955L54.4089 40.6746C55.2293 39.8545 55.2293 38.5246 54.4091 37.7048C53.5892 36.8846 52.2594 36.8843 51.4393 37.7045Z" fill="white"/>
</svg>
