<svg width="90" height="90" viewBox="0 0 90 90" fill="none" xmlns="http://www.w3.org/2000/svg">
<rect width="90" height="90" rx="8" fill="#1A82FF"/>
<path d="M26.0117 75C30.2798 75.0034 34.1636 72.5356 35.9737 68.6709C37.7842 64.8066 37.1939 60.2432 34.46 56.9663L36.7188 54.707L35.3047 53.293L33.0459 55.5522C29.3154 52.4414 23.9863 52.1455 19.9346 54.8242C15.8828 57.5029 14.0674 62.522 15.4683 67.1728C16.8692 71.8237 21.1548 75.0049 26.0117 75ZM26.0117 55C30.9824 55 35.0117 59.0298 35.0117 64C35.0117 68.9707 30.9824 73 26.0117 73C21.0415 73 17.0117 68.9707 17.0117 64C17.0176 59.0317 21.0435 55.0059 26.0117 55Z" fill="white"/>
<path d="M26.0117 37C28.5835 37.0015 31.0737 36.0981 33.0459 34.4482L35.3047 36.707L36.7188 35.293L34.46 33.0342C37.7525 29.0732 37.854 23.3574 34.7036 19.2822C31.5532 15.207 25.9961 13.8652 21.3335 16.0542C16.6709 18.2432 14.1533 23.376 15.2759 28.4028C16.3989 33.4297 20.8613 37.0029 26.0117 37ZM26.0117 17C30.9824 17 35.0117 21.0298 35.0117 26C35.0117 30.9707 30.9824 35 26.0117 35C21.0415 35 17.0117 30.9707 17.0117 26C17.0176 21.0317 21.0435 17.0059 26.0117 17Z" fill="white"/>
<path d="M56.0117 45C56.0156 39.0493 51.2862 34.1743 45.3379 33.998C39.3897 33.8218 34.3794 38.4082 34.0308 44.3486C33.6821 50.2895 38.1211 55.4302 44.0488 55.9512C44.3677 55.9824 44.689 56 45.0117 56C45.335 56 45.6558 55.9824 45.9751 55.9512C51.6499 55.4478 56.0039 50.6978 56.0117 45ZM50.0117 52.2324C48.7945 53.2134 47.3154 53.8149 45.7588 53.9624C45.5117 53.9834 45.2642 54 45.0117 54C44.7598 54 44.5117 53.9834 44.2652 53.9624C42.7085 53.8149 41.2295 53.2134 40.0117 52.2324V52.166C40.6279 50.4004 41.6338 48.7954 42.9551 47.4712L43.5982 46.8281C43.9883 46.4375 43.9883 45.8047 43.5982 45.4141C42.8169 44.6333 42.8164 43.3667 43.5977 42.5854C44.3789 41.8047 45.645 41.8047 46.4263 42.5854C47.207 43.3667 47.207 44.6333 46.4258 45.4141C46.0357 45.8047 46.0357 46.4375 46.4258 46.8281L47.0689 47.4712C48.3897 48.7954 49.3955 50.4004 50.0117 52.166V52.2324ZM48.4829 46.0571L48.459 46.0322C49.4483 44.352 49.0816 42.2036 47.5918 40.9458C46.1016 39.6885 43.9224 39.6885 42.4321 40.9458C40.9419 42.2036 40.5757 44.352 41.565 46.0322L41.541 46.0571C40.1421 47.4697 39.0493 49.1562 38.332 51.0103C35.0806 47.4092 35.2686 41.8794 38.7569 38.5078C42.2456 35.1357 47.7783 35.1357 51.2666 38.5078C54.7554 41.8794 54.9434 47.4092 51.6919 51.0103C50.9741 49.1562 49.8819 47.4697 48.4829 46.0571Z" fill="white"/>
<path d="M26.0117 31C28.7735 31 31.0117 28.7617 31.0117 26C31.0117 23.2388 28.7735 21 26.0117 21C23.2505 21 21.0117 23.2388 21.0117 26C21.0152 28.7603 23.252 30.9971 26.0117 31ZM26.0117 23C27.669 23 29.0117 24.3433 29.0117 26C29.0117 27.6572 27.669 29 26.0117 29C24.355 29 23.0117 27.6572 23.0117 26C23.0117 24.3433 24.355 23 26.0117 23Z" fill="white"/>
<path d="M22.0117 69H30.0117C30.564 69 31.0117 68.5522 31.0117 68V60C31.0117 59.4478 30.564 59 30.0117 59H22.0117C21.4595 59 21.0117 59.4478 21.0117 60V68C21.0117 68.5522 21.4595 69 22.0117 69ZM23.0117 61H29.0117V67H23.0117V61Z" fill="white"/>
<path d="M64.8799 21.5C64.6875 21.2085 64.3613 21.0332 64.0117 21.0332C63.6626 21.0332 63.3364 21.2085 63.1441 21.5L59.1441 28.5C58.9653 28.8101 58.9653 29.1914 59.1445 29.501C59.3237 29.8105 59.6543 30.001 60.0117 30H68.0117C68.3696 30.001 68.7002 29.8105 68.8794 29.501C69.0586 29.1914 69.0586 28.8101 68.8799 28.5L64.8799 21.5ZM61.7349 28L64.0117 24.0161L66.2891 28H61.7349Z" fill="white"/>
<path d="M64.0117 75C68.8692 75.0049 73.1548 71.8237 74.5557 67.1728C75.9566 62.522 74.1411 57.5029 70.0894 54.8242C66.0371 52.1455 60.7085 52.4414 56.978 55.5522L54.7188 53.293L53.3047 54.707L55.564 56.9663C52.8296 60.2432 52.2398 64.8066 54.0498 68.6709C55.8604 72.5356 59.7442 75.0034 64.0117 75ZM64.0117 55C68.9824 55 73.0117 59.0298 73.0117 64C73.0117 68.9707 68.9824 73 64.0117 73C59.0415 73 55.0117 68.9707 55.0117 64C55.0176 59.0317 59.0435 55.0059 64.0117 55Z" fill="white"/>
<path d="M63.4121 69.8003C63.7676 70.0669 64.2564 70.0669 64.6118 69.8003L68.6118 66.8003C68.8638 66.6113 69.0117 66.3149 69.0117 66V62C69.0117 61.6855 68.8638 61.3892 68.6118 61.2002L64.6118 58.2002C64.2564 57.9336 63.7676 57.9336 63.4121 58.2002L59.4121 61.2002C59.1602 61.3892 59.0117 61.6855 59.0117 62V66C59.0117 66.3149 59.1602 66.6113 59.4121 66.8003L63.4121 69.8003ZM61.0117 62.5L64.0117 60.25L67.0117 62.5V65.5L64.0117 67.75L61.0117 65.5V62.5Z" fill="white"/>
<path d="M23.0117 40H25.0117V42H23.0117V40Z" fill="white"/>
<path d="M23.0117 44H25.0117V46H23.0117V44Z" fill="white"/>
<path d="M23.0117 48H25.0117V50H23.0117V48Z" fill="white"/>
<path d="M68.0117 40H70.0117V42H68.0117V40Z" fill="white"/>
<path d="M68.0117 44H70.0117V46H68.0117V44Z" fill="white"/>
<path d="M68.0117 48H70.0117V50H68.0117V48Z" fill="white"/>
<path d="M40.0117 20H42.0117V22H40.0117V20Z" fill="white"/>
<path d="M44.0117 20H46.0117V22H44.0117V20Z" fill="white"/>
<path d="M48.0117 20H50.0117V22H48.0117V20Z" fill="white"/>
<path d="M40.0117 68H42.0117V70H40.0117V68Z" fill="white"/>
<path d="M44.0117 68H46.0117V70H44.0117V68Z" fill="white"/>
<path d="M48.0117 68H50.0117V70H48.0117V68Z" fill="white"/>
<path d="M64.0117 15C60.0239 15.0005 56.3482 17.1597 54.4058 20.6426C52.4634 24.1255 52.5586 28.3872 54.6538 31.7803L54.0239 35.8472C53.9795 36.1357 54.063 36.4292 54.2529 36.6509C54.4429 36.8726 54.7202 37 55.0117 37C55.082 37.0005 55.1524 36.9932 55.2207 36.978L59.5581 36.0483C60.9585 36.6768 62.4766 37.001 64.0117 37C70.0869 37 75.0117 32.0752 75.0117 26C75.0117 19.9253 70.0869 15 64.0117 15ZM64.0117 35C62.6607 34.9995 61.3272 34.6919 60.1118 34.1001C59.9766 34.0342 59.8277 34 59.6768 34C59.6069 34.0005 59.5366 34.0078 59.4678 34.022L56.2251 34.7222L56.6909 31.7163C56.729 31.4683 56.6729 31.2148 56.5327 31.0063C54.2363 27.5747 54.5694 23.021 57.3404 19.96C60.1113 16.8989 64.6099 16.1162 68.252 18.0615C71.8941 20.0063 73.7456 24.1802 72.7427 28.1855C71.7402 32.1909 68.1411 35.0005 64.0117 35Z" fill="white"/>
</svg>
