<svg width="90" height="90" viewBox="0 0 90 90" fill="none" xmlns="http://www.w3.org/2000/svg">
<rect width="90" height="90" rx="8" fill="#1A82FF"/>
<path d="M43.9916 15C27.4464 15 14 28.4652 14 45.0084C14 61.5516 27.4464 75 43.9916 75C60.5369 75 73.9874 61.5516 73.9874 45.0084C73.9874 28.4652 60.5369 15 43.9916 15V15ZM41.8571 19.3945V21.4369C41.8593 22.6155 42.8131 23.571 43.9916 23.5756C45.1768 23.5799 46.1406 22.622 46.1429 21.4369V19.3945C58.6455 20.4281 68.5719 30.3546 69.6055 42.8571H67.5589C66.3754 42.8614 65.4198 43.8249 65.4244 45.0084C65.4287 46.1853 66.3819 47.1383 67.5589 47.1429H69.6055C68.5793 59.6519 58.651 69.5728 46.1429 70.6055V68.5798C46.1471 67.3898 45.1817 66.4239 43.9916 66.4286C42.8082 66.4329 41.8525 67.3963 41.8571 68.5798V70.6055C29.3426 69.5802 19.4198 59.6574 18.3945 47.1429H20.4202C21.6037 47.1471 22.5668 46.1918 22.5714 45.0084C22.5757 43.8183 21.6102 42.8525 20.4202 42.8571H18.3945C19.4272 30.349 29.3481 20.4207 41.8571 19.3945V19.3945ZM53.8898 32.302L38.6052 38.4041C38.0528 38.6238 37.6154 39.0613 37.3957 39.6136L31.2935 54.8982C30.5906 56.6613 32.3388 58.4095 34.1018 57.7065L49.3781 51.5919C49.928 51.3721 50.3637 50.9364 50.5834 50.3865L56.6981 35.1103C57.0132 34.3208 56.8363 33.42 56.2461 32.8083C55.3279 31.9192 54.3462 32.147 53.8898 32.302V32.302ZM50.7969 38.1906L46.9046 47.9255L37.1696 51.8178L41.062 42.0829L50.7969 38.1906Z" fill="white"/>
</svg>
