<svg width="90" height="90" viewBox="0 0 90 90" fill="none" xmlns="http://www.w3.org/2000/svg">
<rect width="90" height="90" rx="8" fill="#1A82FF"/>
<path d="M70.1729 38.542C71.2757 37.467 71.6651 35.8893 71.1892 34.4245C70.7133 32.9598 69.4709 31.9124 67.9468 31.691L54.6199 29.7545C54.3584 29.7165 54.1322 29.5522 54.0152 29.315L48.0553 17.239C47.3737 15.8579 45.9936 15 44.4534 15C42.9133 15 41.5331 15.8579 40.8516 17.239L34.8917 29.3152C34.7746 29.5522 34.5485 29.7165 34.2868 29.7546L20.9602 31.691C19.4361 31.9124 18.1938 32.9598 17.7178 34.4245C17.2417 35.8893 17.6312 37.467 18.7341 38.542L28.3775 47.9419C28.5667 48.1266 28.6532 48.3924 28.6085 48.6531L26.332 61.9259C26.0717 63.444 26.6839 64.9491 27.9298 65.8544C29.1758 66.7599 30.797 66.8768 32.16 66.1604L44.0797 59.8938C44.3138 59.7706 44.5932 59.7706 44.8274 59.8938L56.7473 66.1604C57.3402 66.472 57.9817 66.6261 58.6201 66.626C59.4493 66.626 60.2732 66.3662 60.9771 65.8543C62.223 64.9489 62.8353 63.4436 62.5749 61.9258L60.2984 48.653C60.2538 48.3923 60.3402 48.1265 60.5294 47.9418L70.1729 38.542ZM57.1316 49.1964L59.4081 62.4694C59.4843 62.9136 59.2101 63.1669 59.0886 63.255C58.967 63.3431 58.6413 63.5259 58.2426 63.3161L46.3228 57.0495C45.7376 56.742 45.0957 56.588 44.4537 56.588C43.8117 56.588 43.1697 56.742 42.5846 57.0494L30.6649 63.3158C30.2659 63.5256 29.9403 63.343 29.8189 63.2548C29.6974 63.1667 29.4231 62.9134 29.4994 62.4692L31.7759 49.1964C31.9994 47.8932 31.5677 46.5642 30.6207 45.6412L20.9773 36.2412C20.6546 35.9265 20.7276 35.5605 20.7742 35.4177C20.8204 35.2748 20.9766 34.9357 21.4226 34.871L34.7491 32.9345C36.0575 32.7444 37.1882 31.9231 37.7735 30.7372L43.7334 18.661C43.9329 18.2569 44.3036 18.2133 44.4538 18.2133C44.6038 18.2133 44.9745 18.2568 45.1741 18.661V18.6612L51.134 30.7373C51.7192 31.9232 52.8497 32.7445 54.1582 32.9346L67.4849 34.8711C67.9309 34.9358 68.0869 35.275 68.1333 35.4178C68.1797 35.5607 68.2529 35.9268 67.93 36.2414L58.2867 45.6413C57.3398 46.5642 56.9081 47.8932 57.1316 49.1964Z" fill="white"/>
<path d="M63.2227 17.2382C62.5047 16.7167 61.5001 16.8758 60.9786 17.5936L59.2731 19.9409C58.7516 20.6587 58.9106 21.6635 59.6285 22.1851C59.9139 22.3922 60.2443 22.492 60.5716 22.492C61.0685 22.492 61.5584 22.2623 61.8727 21.8297L63.5782 19.4825C64.0997 18.7645 63.9407 17.7597 63.2227 17.2382Z" fill="white"/>
<path d="M29.6263 19.9314L27.9208 17.5841C27.3994 16.8666 26.3947 16.7074 25.6766 17.2287C24.9589 17.7502 24.7997 18.755 25.3212 19.4728L27.0267 21.8201C27.3411 22.253 27.831 22.4826 28.328 22.4826C28.6555 22.4826 28.9859 22.3828 29.271 22.1755C29.9888 21.6541 30.1479 20.6493 29.6263 19.9314Z" fill="white"/>
<path d="M19.8946 51.0465C19.6204 50.2027 18.714 49.7408 17.87 50.015L15.1106 50.9117C14.2666 51.1859 13.8049 52.0925 14.0791 52.9363C14.2996 53.6154 14.9295 54.047 15.6067 54.047C15.7713 54.047 15.9386 54.0214 16.1036 53.9678L18.8631 53.0711C19.707 52.7969 20.1688 51.8905 19.8946 51.0465Z" fill="white"/>
<path d="M44.4538 68.8851C43.5665 68.8851 42.8472 69.6044 42.8472 70.4917V73.3934C42.8472 74.2807 43.5665 75 44.4538 75C45.3411 75 46.0604 74.2807 46.0604 73.3934V70.4917C46.0604 69.6043 45.3412 68.8851 44.4538 68.8851Z" fill="white"/>
<path d="M73.7958 50.914L71.0364 50.0173C70.1927 49.7433 69.286 50.2049 69.0118 51.0489C68.7376 51.8929 69.1993 52.7992 70.0433 53.0734L72.8028 53.9701C72.9678 54.0237 73.135 54.0491 73.2996 54.0491C73.9769 54.0491 74.6068 53.6174 74.8273 52.9384C75.1015 52.0945 74.6397 51.1882 73.7958 50.914Z" fill="white"/>
</svg>
