<svg width="90" height="90" viewBox="0 0 90 90" fill="none" xmlns="http://www.w3.org/2000/svg">
<rect width="90" height="90" rx="8" fill="#1A82FF"/>
<path d="M70.8366 43.8187C70.3189 43.8187 69.8992 44.2385 69.8992 44.7562V45.2437C69.8992 45.7614 70.3189 46.1812 70.8366 46.1812C71.3544 46.1812 71.7741 45.7614 71.7741 45.2437V44.7562C71.7741 44.2385 71.3544 43.8187 70.8366 43.8187V43.8187Z" fill="white"/>
<path d="M21.375 62.4617L41.5194 74.0946C42.5585 74.6984 43.7231 75 44.8876 75C46.0517 75 47.2153 74.6984 48.2525 74.0959L68.3965 62.463C70.4802 61.2692 71.7743 59.0358 71.7743 56.634V49.5279C71.7743 49.0101 71.3545 48.5904 70.8368 48.5904C70.3191 48.5904 69.8994 49.0101 69.8994 49.5279V56.634C69.8994 58.3652 68.9664 59.9756 67.4618 60.8376L47.3129 72.4733C45.817 73.343 43.9579 73.3435 42.4593 72.472L22.3098 60.8361C20.8079 59.9756 19.8749 58.3652 19.8749 56.634V33.3659C19.8749 31.6347 20.8079 30.0243 22.3125 29.1623L42.4614 17.5267C43.9573 16.657 45.8162 16.6565 47.315 17.5281L67.4644 29.1638C68.9663 30.0243 69.8992 31.6347 69.8992 33.3659V40.4721C69.8992 40.9898 70.319 41.4095 70.8367 41.4095C71.3544 41.4095 71.7742 40.9898 71.7742 40.4721V33.3659C71.7742 30.9641 70.4801 28.7307 68.3992 27.5382L48.2547 15.9053C46.177 14.6982 43.5966 14.6987 41.5216 15.904L21.3778 27.5369C19.2941 28.7307 18 30.9641 18 33.3659V56.634C18 59.0358 19.2941 61.2692 21.375 62.4617V62.4617Z" fill="white"/>
<path d="M45.3558 24.2722C45.0656 24.1046 44.7086 24.1046 44.4183 24.2722L27.1707 34.2301C26.8805 34.3976 26.7019 34.7071 26.7019 35.0422V54.9576C26.7019 55.2928 26.8805 55.6022 27.1707 55.7697L44.4183 65.7277C44.5634 65.8114 44.7251 65.8532 44.8871 65.8532C45.0492 65.8532 45.2108 65.8114 45.3559 65.7277L62.6037 55.7697C62.8939 55.6022 63.0725 55.2928 63.0725 54.9576V35.0422C63.0725 34.7071 62.8939 34.3976 62.6037 34.2301L45.3558 24.2722ZM61.1972 54.4166L44.887 63.833L28.5768 54.4166V35.5832L44.887 26.1668L61.1972 35.5832V54.4166Z" fill="white"/>
<path d="M39.0699 39.432C38.5522 39.432 38.1325 39.8518 38.1325 40.3695V46.4865L33.7925 39.8558C33.565 39.5093 33.1356 39.3528 32.7401 39.4708C32.3427 39.5893 32.0703 39.9547 32.0703 40.3694V49.6302C32.0703 50.1479 32.4901 50.5676 33.0078 50.5676C33.5255 50.5676 33.9452 50.1479 33.9452 49.6302V43.5132L38.2852 50.1439C38.7934 50.918 40.0073 50.5641 40.0073 49.6303V40.3695C40.0074 39.8518 39.5876 39.432 39.0699 39.432V39.432Z" fill="white"/>
<path d="M50.1833 41.3071H52.5371V49.6304C52.5371 50.1481 52.9568 50.5678 53.4745 50.5678C53.9922 50.5678 54.412 50.1481 54.412 49.6304V41.3071H56.7662C57.284 41.3071 57.7037 40.8873 57.7037 40.3696C57.7037 39.8519 57.284 39.4321 56.7662 39.4321H50.1833C49.6656 39.4321 49.2458 39.8519 49.2458 40.3696C49.2458 40.8873 49.6656 41.3071 50.1833 41.3071V41.3071Z" fill="white"/>
<path d="M41.8513 40.3696V49.6304C41.8513 50.1481 42.2711 50.5678 42.7888 50.5678C43.3065 50.5678 43.7262 50.1481 43.7262 49.6304V45.9376H47.4249C47.9426 45.9376 48.3623 45.5179 48.3623 45.0002C48.3623 44.4825 47.9426 44.0627 47.4249 44.0627H43.7262V41.3071H47.4249C47.9426 41.3071 48.3623 40.8873 48.3623 40.3696C48.3623 39.8519 47.9426 39.4321 47.4249 39.4321H42.7888C42.2711 39.4321 41.8513 39.8519 41.8513 40.3696V40.3696Z" fill="white"/>
</svg>
