<svg width="90" height="90" viewBox="0 0 90 90" fill="none" xmlns="http://www.w3.org/2000/svg">
<rect width="90" height="90" rx="8" fill="#1A82FF"/>
<path d="M45 41.4844C48.2309 41.4844 50.8594 38.8559 50.8594 35.625C50.8594 32.3941 48.2309 29.7656 45 29.7656C41.7691 29.7656 39.1406 32.3941 39.1406 35.625C39.1406 38.8559 41.7691 41.4844 45 41.4844ZM45 32.1094C46.9385 32.1094 48.5156 33.6865 48.5156 35.625C48.5156 37.5635 46.9385 39.1406 45 39.1406C43.0615 39.1406 41.4844 37.5635 41.4844 35.625C41.4844 33.6865 43.0615 32.1094 45 32.1094Z" fill="white"/>
<path d="M36.4134 67.8241C35.8397 65.3348 33.6756 63.4467 31.0529 63.2915C29.5233 60.1298 25.9495 58.1558 22.2531 58.6779C18.3893 59.2232 15 63.0171 15 66.7968C15 71.0424 18.6989 75 23.4375 75H39.7266C40.3737 75 40.8984 74.4753 40.8984 73.8281C40.8984 73.1809 40.3737 72.6562 39.7266 72.6562H23.4375C20.1913 72.6562 17.3437 69.9182 17.3437 66.7968C17.3437 64.1963 19.8888 61.3786 22.5806 60.9986C24.9607 60.6623 27.3371 61.7761 28.5845 63.6793C27.8307 63.9719 27.1386 64.4188 26.5597 64.9986C26.1025 65.4566 26.103 66.1986 26.561 66.656C26.7898 66.8844 27.0894 66.9985 27.3889 66.9985C27.6892 66.9985 27.9893 66.8838 28.2182 66.6547C28.8093 66.0627 29.5819 65.6646 30.703 65.6251C32.6415 65.6251 34.2186 67.2022 34.2186 69.1407C34.2186 69.7879 34.7434 70.3126 35.3905 70.3126C38.6937 70.3126 41.4843 67.6293 41.4843 64.4532V60.2345H48.5155V64.4532C48.5155 67.6293 51.3061 70.3126 54.6092 70.3126C55.2564 70.3126 55.7811 69.7879 55.7811 69.1407C55.7811 67.2022 57.3582 65.6251 59.2945 65.6251C60.3513 65.6579 61.1578 66.03 61.7816 66.6547C62.237 67.1108 62.9788 67.1151 63.4389 66.656C63.8968 66.1987 63.8974 65.4567 63.4401 64.9986C62.8612 64.4188 62.1691 63.9719 61.4153 63.6793C62.6624 61.7763 65.0383 60.6627 67.4195 60.9986C70.1619 61.3854 72.7069 64.2492 72.6564 66.8913C72.5955 70.0162 69.8049 72.6562 66.5624 72.6562H50.2734C49.6263 72.6562 49.1016 73.1809 49.1016 73.8281C49.1016 74.4753 49.6263 75 50.2734 75H66.5625C71.0511 75 74.9148 71.3075 74.9998 66.9364C75.0732 63.0922 71.6841 59.2331 67.747 58.6779C64.0488 58.1559 60.4762 60.1309 58.9471 63.2915C56.3244 63.4466 54.1603 65.3348 53.5866 67.8241C52.0498 67.3838 50.8594 65.9966 50.8594 64.4531V60.2343H52.0312C52.6187 60.2343 53.1152 59.7995 53.1928 59.2173L53.6823 55.5468H58.8398C60.9012 55.5468 62.5781 53.8699 62.5781 51.8086C62.5781 50.9174 62.2587 50.0536 61.6785 49.376L55.4708 42.1339L56.0743 37.6078C57.2672 28.6548 52.9112 19.5533 45.603 15.1671C45.2318 14.9443 44.7681 14.9443 44.3968 15.1671C37.087 19.5542 32.733 28.6566 33.9255 37.6081L34.5291 42.134L28.3212 49.3765C27.7413 50.0537 27.4219 50.9174 27.4219 51.8086C27.4219 53.8699 29.0989 55.5468 31.1602 55.5468H36.3177L36.8072 59.2173C36.8848 59.7995 37.3813 60.2343 37.9687 60.2343H39.1406V64.4531C39.1406 65.9966 37.9502 67.3838 36.4134 67.8241V67.8241ZM59.8986 50.9009C60.1152 51.1538 60.2344 51.4761 60.2344 51.8087C60.2344 52.5777 59.6087 53.2032 58.8398 53.2032H53.9948L55.0553 45.2506L59.8986 50.9009ZM45 17.5557C46.7851 18.7291 48.3861 20.2497 49.7212 22.0312H40.2787C41.6137 20.2497 43.2149 18.7291 45 17.5557ZM38.7619 24.375H51.2382C53.4445 28.3408 54.3367 32.9038 53.7513 37.2982L51.63 53.2031H38.3698L36.2488 37.2984C35.6633 32.9039 36.5555 28.3411 38.7619 24.375V24.375ZM31.1602 53.2031C30.3912 53.2031 29.7656 52.5775 29.7656 51.8086C29.7656 51.4761 29.8849 51.1537 30.101 50.9013L34.9447 45.2506L36.0052 53.2031H31.1602ZM38.6823 55.5468H51.3176L51.0053 57.8906H38.9948L38.6823 55.5468Z" fill="white"/>
<path d="M45 75C45.6472 75 46.1719 74.4754 46.1719 73.8281C46.1719 73.1809 45.6472 72.6562 45 72.6562C44.3528 72.6562 43.8281 73.1809 43.8281 73.8281C43.8281 74.4754 44.3528 75 45 75Z" fill="white"/>
</svg>
