<svg width="90" height="90" viewBox="0 0 90 90" fill="none" xmlns="http://www.w3.org/2000/svg">
<rect width="90" height="90" rx="8" fill="#1A82FF"/>
<path d="M51.5185 32.6592C50.1124 32.6592 48.9395 33.6724 48.6894 35.0068L39.4535 38.8432H36.1055C34.639 38.8432 33.446 39.9734 33.446 41.3628V45.6971C33.446 46.7374 34.115 47.6323 35.0666 48.0165V53.6738C35.0666 55.1745 36.2875 56.3954 37.7882 56.3954C39.2889 56.3954 40.5098 55.1745 40.5098 53.6738V48.6555L48.6894 52.0531C48.9395 53.3875 50.1126 54.4009 51.5185 54.4009C53.106 54.4009 54.3975 53.1093 54.3975 51.5218V48.2785C56.5174 47.7286 58.0813 45.7812 58.0813 43.53C58.0813 41.2786 56.5174 39.3314 54.3975 38.7815V35.5381C54.3975 33.9506 53.106 32.6592 51.5185 32.6592ZM40.5098 40.3116L48.6395 36.9348V50.1254L40.5098 46.7484V40.3116ZM35.2073 41.3628C35.2073 40.9447 35.6101 40.6044 36.1054 40.6044H38.7484V46.4554H36.1055C35.6103 46.4554 35.2074 46.1152 35.2074 45.697V41.3628H35.2073ZM37.7882 54.6342C37.2586 54.6342 36.8278 54.2034 36.8278 53.6738V48.2168H38.7484V53.6738C38.7485 54.2034 38.3176 54.6342 37.7882 54.6342V54.6342ZM52.6362 51.5219C52.6362 52.1382 52.1348 52.6396 51.5185 52.6396C50.9022 52.6396 50.4007 52.1382 50.4007 51.5219V35.5381C50.4007 34.9218 50.9022 34.4204 51.5185 34.4204C52.1348 34.4204 52.6362 34.9217 52.6362 35.5381V51.5219ZM56.3201 43.53C56.3201 44.8129 55.5279 45.9419 54.3975 46.4243V40.6358C55.5278 41.118 56.3201 42.2469 56.3201 43.53V43.53Z" fill="white"/>
<path d="M66.9221 60.0577C65.3856 60.0577 63.9272 60.5607 62.7316 61.4862L58.7396 57.4942C61.744 54.1941 63.3451 50.0647 63.542 45.8805H66.7416C67.147 47.7618 68.8229 49.1762 70.8237 49.1762C73.1265 49.1763 75 47.3029 75 45C75 42.6971 73.1265 40.8237 70.8237 40.8237C68.8229 40.8237 67.1472 42.2381 66.7416 44.1193H63.542C63.3451 39.9353 61.744 35.8059 58.7396 32.5057L62.7316 28.5137C63.9211 29.4342 65.3715 29.9373 66.8995 29.9422H66.9026C67.3875 29.9422 67.7815 29.5499 67.7831 29.0645C67.7848 28.5782 67.3917 28.1827 66.9054 28.181C65.5487 28.1766 64.2731 27.6458 63.3137 26.6864C61.3241 24.6967 61.3241 21.4591 63.3137 19.4694C64.2776 18.5055 65.559 17.9748 66.9223 17.9748C68.2854 17.9748 69.5668 18.5055 70.5307 19.4694C71.4947 20.4333 72.0254 21.7147 72.0254 23.0779C72.0254 24.441 71.4947 25.7224 70.5307 26.6864C70.3049 26.9122 70.0584 27.117 69.7978 27.2951C69.3962 27.5694 69.2932 28.1175 69.5675 28.519C69.8419 28.9204 70.3898 29.0236 70.7914 28.7491C71.1421 28.5095 71.4735 28.2345 71.7762 27.9316C73.0727 26.6351 73.7866 24.9113 73.7866 23.0777C73.7866 21.2442 73.0726 19.5204 71.7762 18.2239C70.4797 16.9275 68.7559 16.2135 66.9223 16.2135C65.0886 16.2135 63.3649 16.9275 62.0682 18.2239C59.6031 20.6892 59.4105 24.5776 61.4869 27.2677L57.4944 31.2602C54.1942 28.2559 50.065 26.6548 45.8808 26.4579V23.2584C47.762 22.853 49.1764 21.1771 49.1764 19.1763C49.1763 16.8735 47.3029 15 45 15C42.6971 15 40.8237 16.8735 40.8237 19.1763C40.8237 21.1771 42.2381 22.853 44.1193 23.2584V26.458C39.9353 26.6549 35.8059 28.256 32.5057 31.2604L28.5131 27.2678C30.5895 24.5777 30.3969 20.6893 27.9318 18.2241C26.6353 16.9276 24.9115 16.2136 23.078 16.2136C21.2445 16.2136 19.5206 16.9276 18.2241 18.2241C16.9275 19.5205 16.2135 21.2445 16.2135 23.078C16.2135 24.9115 16.9275 26.6353 18.2239 27.9319C19.5204 29.2284 21.2442 29.9423 23.0779 29.9423C24.6144 29.9423 26.0728 29.4393 27.2684 28.5138L31.2615 32.5071C30.283 33.5818 29.4341 34.7609 28.7358 36.0252C28.5007 36.4509 28.6552 36.9866 29.0809 37.2218C29.5065 37.457 30.0423 37.3024 30.2775 36.8768C31.0369 35.5018 31.991 34.2356 33.1133 33.1133C39.6674 26.5591 50.3323 26.559 56.8866 33.1133C63.441 39.6677 63.441 50.3323 56.8866 56.8867C50.3323 63.4409 39.6676 63.4409 33.1133 56.8867C28.6678 52.4412 27.0775 45.9503 28.9632 39.947C29.109 39.483 28.851 38.9886 28.387 38.843C27.9223 38.6972 27.4287 38.9554 27.2829 39.4192C26.7962 40.9684 26.5219 42.547 26.4456 44.1195H23.2584C22.853 42.2382 21.1771 40.8238 19.1763 40.8238C16.8735 40.8237 15 42.6971 15 45C15 47.3029 16.8735 49.1763 19.1763 49.1763C21.1771 49.1763 22.8529 47.7619 23.2584 45.8807H26.4436C26.6422 50.138 28.3071 54.2484 31.2616 57.493L27.2685 61.4862C26.0729 60.5607 24.6145 60.0577 23.078 60.0577C21.2443 60.0577 19.5206 60.7717 18.2241 62.0682C16.9275 63.3648 16.2136 65.0885 16.2136 66.922C16.2136 68.7555 16.9276 70.4794 18.2241 71.7759C19.5205 73.0725 21.2445 73.7864 23.078 73.7864C23.5644 73.7864 23.9586 73.3921 23.9586 72.9057C23.9586 72.4194 23.5644 72.0251 23.078 72.0251C21.7148 72.0251 20.4333 71.4942 19.4695 70.5305C18.5055 69.5666 17.9748 68.2852 17.9748 66.9219C17.9748 65.5588 18.5055 64.2773 19.4695 63.3135C20.4333 62.3496 21.7148 61.8189 23.078 61.8189C24.4411 61.8189 25.7225 62.3496 26.6865 63.3135C28.6761 65.3032 28.6761 68.5407 26.6866 70.5304C26.4412 70.7756 26.1717 70.9959 25.8853 71.185C25.4794 71.453 25.3676 71.9992 25.6356 72.405C25.9035 72.8109 26.4498 72.9227 26.8556 72.6548C27.2407 72.4007 27.6028 72.1049 27.932 71.7758C30.3971 69.3104 30.5897 65.422 28.5134 62.7321L32.5059 58.7395C35.8062 61.7439 39.9355 63.345 44.1196 63.5419V66.7414C42.2384 67.1469 40.8239 68.8228 40.8239 70.8236C40.8237 73.1265 42.6971 75 45 75C47.3029 75 49.1763 73.1265 49.1763 70.8237C49.1763 68.8229 47.7619 67.147 45.8807 66.7416V63.542C50.0647 63.3451 54.1941 61.744 57.4943 58.7396L61.4868 62.7322C59.4104 65.4223 59.603 69.3107 62.0681 71.7759C63.3648 73.0725 65.0885 73.7864 66.9221 73.7864C68.7558 73.7864 70.4795 73.0724 71.7761 71.7759C73.0726 70.4795 73.7865 68.7557 73.7865 66.9221C73.7865 65.0886 73.0725 63.3648 71.7761 62.0682C70.4796 60.7717 68.7557 60.0577 66.9221 60.0577V60.0577ZM42.5849 19.1763C42.5849 17.8446 43.6683 16.7612 45 16.7612C46.3317 16.7612 47.4151 17.8446 47.4151 19.1763C47.4151 20.508 46.3317 21.5914 45 21.5914C43.6683 21.5914 42.5849 20.508 42.5849 19.1763V19.1763ZM19.4695 26.6864C18.5055 25.7225 17.9748 24.4411 17.9748 23.0779C17.9748 21.7147 18.5055 20.4333 19.4695 19.4694C20.4333 18.5055 21.7148 17.9748 23.078 17.9748C24.4411 17.9748 25.7225 18.5055 26.6865 19.4694C28.6761 21.4591 28.6761 24.6967 26.6865 26.6864C25.7227 27.6503 24.4412 28.181 23.078 28.181C21.7147 28.181 20.4333 27.6503 19.4695 26.6864V26.6864ZM70.8237 42.5849C72.1554 42.5849 73.2388 43.6683 73.2388 45C73.2388 46.3317 72.1554 47.4151 70.8237 47.4151C69.492 47.4151 68.4086 46.3317 68.4086 45C68.4086 43.6683 69.492 42.5849 70.8237 42.5849V42.5849ZM19.1763 47.4151C17.8446 47.4151 16.7612 46.3317 16.7612 45C16.7612 43.6683 17.8446 42.5849 19.1763 42.5849C20.508 42.5849 21.5914 43.6684 21.5914 45C21.5914 46.3316 20.508 47.4151 19.1763 47.4151ZM47.4151 70.8237C47.4151 72.1553 46.3317 73.2388 45 73.2388C43.6683 73.2388 42.5849 72.1554 42.5849 70.8237C42.5849 69.492 43.6683 68.4086 45 68.4086C46.3317 68.4086 47.4151 69.492 47.4151 70.8237ZM70.5305 70.5306C69.5667 71.4945 68.2852 72.0252 66.922 72.0252C65.5589 72.0252 64.2773 71.4945 63.3135 70.5306C61.3239 68.5409 61.3239 65.3033 63.3135 63.3136C64.2773 62.3497 65.5588 61.819 66.922 61.819C68.2852 61.819 69.5666 62.3497 70.5305 63.3136C71.4945 64.2775 72.0252 65.5589 72.0252 66.9221C72.0253 68.2852 71.4945 69.5666 70.5305 70.5306V70.5306Z" fill="white"/>
</svg>
