<svg width="90" height="90" viewBox="0 0 90 90" fill="none" xmlns="http://www.w3.org/2000/svg">
<path d="M0 8C0 3.58172 3.58172 0 8 0H82C86.4183 0 90 3.58172 90 8V82C90 86.4183 86.4183 90 82 90H8C3.58172 90 0 86.4183 0 82V8Z" fill="#1A82FF"/>
<path d="M69.2003 23.3792H58.4595V19.8537C58.4595 19.3686 58.0663 18.9753 57.581 18.9753C57.0958 18.9753 56.7026 19.3686 56.7026 19.8537V23.3792H53.0639C52.5787 23.3792 52.1855 23.7725 52.1855 24.2577C52.1855 24.7428 52.5787 25.1361 53.0639 25.1361H56.7026V28.8557H56.0433C55.1227 28.8557 54.3737 29.6047 54.3737 30.5252V40.8665C54.3737 41.7871 55.1227 42.536 56.0433 42.536H56.7026V49.505C56.7026 49.9901 57.0958 50.3834 57.581 50.3834C58.0663 50.3834 58.4595 49.9901 58.4595 49.505V42.536H59.1188C60.0392 42.536 60.7882 41.787 60.7882 40.8665V30.5252C60.7882 29.6046 60.0392 28.8557 59.1188 28.8557H58.4595V25.1361H69.2003C71.311 25.1361 73.0284 26.8533 73.0284 28.9642V59.0292H16.7569V28.9643C16.7569 26.8535 18.4741 25.1362 20.5849 25.1362H35.9834V26.8505H35.3241C34.4035 26.8505 33.6546 27.5995 33.6546 28.52V38.8613C33.6546 39.7819 34.4037 40.5308 35.3241 40.5308H35.9834V48.293C35.9834 48.7781 36.3767 49.1714 36.8618 49.1714C37.347 49.1714 37.7403 48.7781 37.7403 48.293V40.5308H38.3996C39.3202 40.5308 40.069 39.7818 40.069 38.8613V28.52C40.069 27.5994 39.32 26.8505 38.3996 26.8505H37.7403V25.1361H41.379C41.8641 25.1361 42.2574 24.7428 42.2574 24.2577C42.2574 23.7725 41.8641 23.3792 41.379 23.3792H37.7403V22.9454C37.7403 22.4603 37.347 22.067 36.8618 22.067C36.3767 22.067 35.9834 22.4603 35.9834 22.9454V23.3792H20.5849C17.5054 23.3792 15 25.8846 15 28.9642V59.9077C15 62.9872 17.5054 65.4926 20.5849 65.4926H33.9568V69.959L31.1256 73.2431H30.0018C29.5167 73.2431 29.1234 73.6364 29.1234 74.1216C29.1234 74.6067 29.5167 75 30.0018 75H59.7024C60.1876 75 60.5808 74.6067 60.5808 74.1216C60.5808 73.6364 60.1876 73.2431 59.7024 73.2431H58.6595L55.8283 69.959V65.4926H69.2003C72.2798 65.4926 74.7852 62.9872 74.7852 59.9077V28.9643C74.7852 25.8847 72.2798 23.3792 69.2003 23.3792ZM59.0314 40.7794H56.1307V30.6127H59.0315L59.0314 40.7794ZM38.3122 38.774H35.4114V28.6074H38.3122V38.774ZM69.2003 63.7357H51.422C50.9367 63.7357 50.5435 64.129 50.5435 64.6142C50.5435 65.0993 50.9367 65.4926 51.422 65.4926H54.0714V69.407H51.8833C51.3981 69.407 51.0049 69.8003 51.0049 70.2854C51.0049 70.7705 51.3981 71.1638 51.8833 71.1638H54.5473L56.3399 73.2431H33.4452L35.2378 71.1638H37.9018C38.3869 71.1638 38.7802 70.7705 38.7802 70.2854C38.7802 69.8003 38.3869 69.407 37.9018 69.407H35.7137V65.4926H47.6783C48.1636 65.4926 48.5568 65.0993 48.5568 64.6142C48.5568 64.129 48.1636 63.7357 47.6783 63.7357H20.5849C18.7764 63.7357 17.2579 62.4748 16.8597 60.7861H72.9254C72.5273 62.4748 71.0088 63.7357 69.2003 63.7357Z" fill="white"/>
<path d="M24.1733 40.6457C23.6882 40.6457 23.2949 41.039 23.2949 41.5242V43.6448C23.2949 44.5654 24.0438 45.3143 24.9643 45.3143H25.6236V49.9923C25.6236 50.4775 26.0169 50.8708 26.5021 50.8708C26.9872 50.8708 27.3805 50.4775 27.3805 49.9923V45.3143H28.0398C28.9604 45.3143 29.7093 44.5654 29.7093 43.6448V33.3035C29.7093 32.3829 28.9603 31.6339 28.0398 31.6339H27.3805V30.2289C27.3805 29.7437 26.9872 29.3504 26.5021 29.3504C26.0169 29.3504 25.6236 29.7437 25.6236 30.2289V31.6339H24.9643C24.0438 31.6339 23.2949 32.3829 23.2949 33.3035V37.7807C23.2949 38.2658 23.6882 38.6591 24.1733 38.6591C24.6584 38.6591 25.0517 38.2658 25.0517 37.7807V33.3909H26.5022C26.5022 33.3909 26.5029 33.3909 26.5034 33.3909H27.9526V43.5575H25.0517V41.5243C25.0517 41.039 24.6584 40.6457 24.1733 40.6457Z" fill="white"/>
<path d="M45.6835 38.7926H46.3429V43.4706C46.3429 43.9557 46.7361 44.349 47.2213 44.349C47.7066 44.349 48.0998 43.9557 48.0998 43.4706V38.7926H48.759C49.6795 38.7926 50.4285 38.0436 50.4285 37.123V30.233C50.4285 29.7479 50.0353 29.3546 49.5501 29.3546C49.0649 29.3546 48.6717 29.7479 48.6717 30.233V37.0358H45.7709V21.13H48.6717V26.4895C48.6717 26.9746 49.0649 27.3679 49.5501 27.3679C50.0353 27.3679 50.4285 26.9746 50.4285 26.4895V21.0426C50.4285 20.1222 49.6795 19.3732 48.759 19.3732H48.0998V15.8784C48.0998 15.3933 47.7066 15 47.2213 15C46.7361 15 46.3429 15.3933 46.3429 15.8784V19.3732H45.6835C44.7629 19.3732 44.014 20.1222 44.014 21.0426V37.123C44.014 38.0437 44.7629 38.7926 45.6835 38.7926Z" fill="white"/>
<path d="M62.6504 39.0826C62.8091 39.377 63.1118 39.5443 63.4244 39.5443C63.565 39.5443 63.7079 39.5103 63.8405 39.4389L67.8868 37.2572L67.5957 38.0211C67.423 38.4745 67.6506 38.982 68.1039 39.1547C68.2069 39.1939 68.3125 39.2125 68.4165 39.2125C68.7704 39.2125 69.1041 38.997 69.2376 38.6465L70.2266 36.0504C70.3993 35.597 70.1718 35.0895 69.7184 34.9167L66.9628 33.867C66.5095 33.6943 66.0019 33.9218 65.8292 34.3752C65.6564 34.8285 65.884 35.336 66.3374 35.5088L66.9763 35.7522L63.0067 37.8925C62.5797 38.1228 62.4202 38.6556 62.6504 39.0826Z" fill="white"/>
<path d="M20.1939 56.2464C20.3366 56.5797 20.6609 56.7794 21.0018 56.7794C21.1171 56.7794 21.2343 56.7565 21.3471 56.7083L32.6821 51.8571L33.7122 54.556C33.8024 54.7923 33.9899 54.9781 34.2268 55.0662C34.4637 55.1542 34.7272 55.136 34.9497 55.016L53.6759 44.9193C54.103 44.6891 54.2625 44.1563 54.0322 43.7292C53.8021 43.3023 53.2694 43.1427 52.8421 43.3729L34.9967 52.9946L33.9975 50.3766C33.9123 50.1532 33.7397 49.9743 33.5197 49.881C33.2996 49.7877 33.051 49.7883 32.8312 49.8822L20.6558 55.093C20.2099 55.2841 20.0031 55.8003 20.1939 56.2464Z" fill="white"/>
</svg>
