<svg width="90" height="90" viewBox="0 0 90 90" fill="none" xmlns="http://www.w3.org/2000/svg">
<rect width="90" height="90" rx="8" fill="#1A82FF"/>
<path d="M68.9968 45C68.9968 34.5241 60.4741 26.0013 49.9982 26.0013H43.9986C33.5227 26.0013 25 34.5241 25 45C25 55.4758 33.5227 63.9986 43.9986 63.9986H49.9982C60.4741 63.9986 68.9968 55.4758 68.9968 45ZM59.4813 55.9992C60.3658 54.7583 61.0976 53.4154 61.6609 51.9995H65.4882C64.8317 53.4445 63.9765 54.7908 62.9475 55.9992H59.4813ZM66.9668 44H62.971C62.9007 42.6476 62.6852 41.3067 62.3283 40.0003H66.2463C66.6465 41.2997 66.8884 42.6427 66.9668 44ZM62.971 45.9999H66.9668C66.8884 47.3573 66.6465 48.7002 66.2463 49.9996H62.3283C62.6852 48.6932 62.9007 47.3523 62.971 45.9999V45.9999ZM65.4882 38.0005H61.6609C61.0976 36.5846 60.3658 35.2417 59.4813 34.0008H62.9475C63.9765 35.2092 64.8317 36.5554 65.4882 38.0005V38.0005ZM60.9385 32.0009H57.8404C56.4327 30.502 54.7924 29.2401 52.9827 28.2638C55.9173 28.7879 58.6616 30.077 60.9385 32.0009ZM26.9999 45C26.9999 35.6268 34.6255 28.0012 43.9986 28.0012C53.3717 28.0012 60.9974 35.6268 60.9974 45C60.9974 54.3731 53.3717 61.9988 43.9986 61.9988C34.6255 61.9988 26.9999 54.3731 26.9999 45ZM57.8404 57.999H60.9385C58.6616 59.923 55.9173 61.2121 52.9827 61.7362C54.7924 60.7599 56.4327 59.4979 57.8404 57.999V57.999Z" fill="white"/>
<path d="M43.9985 33.0008C46.6756 32.9912 49.2775 33.8863 51.3821 35.5408L52.6137 33.9652C50.1581 32.0345 47.1222 30.99 43.9985 31.0009C41.3396 31.001 38.7356 31.7583 36.4914 33.1842C34.2471 34.6101 32.4553 36.6457 31.3257 39.0528C30.1961 41.4598 29.7753 44.1388 30.1126 46.7762C30.45 49.4137 31.5314 51.9006 33.2305 53.9458L34.768 52.6671C33.3119 50.9139 32.3852 48.7824 32.0962 46.5217C31.8073 44.2611 32.1681 41.965 33.1364 39.9019C34.1047 37.8389 35.6405 36.0942 37.5641 34.8721C39.4877 33.65 41.7195 33.0009 43.9985 33.0008V33.0008Z" fill="white"/>
<path d="M56.9242 39.6155L55.0784 40.3852C55.9906 42.5802 56.2307 44.9966 55.7683 47.3282C55.3059 49.6598 54.1618 51.8017 52.481 53.4825C50.8002 55.1633 48.6584 56.3074 46.3267 56.7698C43.9951 57.2322 41.5788 56.992 39.3837 56.0799L38.614 57.9257C41.1749 58.9904 43.9941 59.2709 46.7146 58.7317C49.435 58.1924 51.9341 56.8577 53.8951 54.8966C55.8562 52.9356 57.1909 50.4365 57.7302 47.716C58.2694 44.9956 57.9889 42.1763 56.9242 39.6155V39.6155Z" fill="white"/>
<path d="M52.7143 47.2491C53.1953 45.3842 53.0654 43.4143 52.3438 41.6287C51.6222 39.8432 50.3469 38.3362 48.7053 37.3291C47.0637 36.3221 45.1424 35.8682 43.2237 36.0341C41.305 36.1999 39.4901 36.9769 38.0457 38.2507L39.369 39.7501C40.4931 38.761 41.9045 38.1582 43.3963 38.0301C44.8881 37.9021 46.3816 38.2555 47.6577 39.0386C48.9339 39.8216 49.9255 40.9931 50.487 42.3811C51.0485 43.7691 51.1504 45.3005 50.7776 46.7506L52.7143 47.2491Z" fill="white"/>
<path d="M49.9515 51.7492L48.6281 50.2498C47.4451 51.2915 45.9453 51.9036 44.3712 51.9869C42.7971 52.0703 41.241 51.6201 39.9546 50.7092C38.6682 49.7983 37.7268 48.4799 37.2827 46.9675C36.8386 45.4551 36.9179 43.8371 37.5076 42.3753L35.6537 41.625C34.8938 43.5046 34.7907 45.5857 35.3612 47.5312C35.9317 49.4767 37.1423 51.1726 38.7969 52.3442C40.4514 53.5158 42.4531 54.0945 44.4777 53.9865C46.5022 53.8785 48.431 53.0902 49.9515 51.7492Z" fill="white"/>
<path d="M39.9988 45C39.9988 45.791 40.2334 46.5643 40.6729 47.2221C41.1123 47.8798 41.737 48.3925 42.4679 48.6952C43.1987 48.9979 44.0029 49.0771 44.7788 48.9228C45.5547 48.7685 46.2673 48.3875 46.8267 47.8282C47.3861 47.2688 47.767 46.5561 47.9214 45.7803C48.0757 45.0044 47.9965 44.2002 47.6937 43.4693C47.391 42.7385 46.8784 42.1138 46.2206 41.6743C45.5629 41.2348 44.7896 41.0002 43.9985 41.0002C42.9381 41.0014 41.9214 41.4232 41.1716 42.1731C40.4218 42.9229 40 43.9395 39.9988 45ZM45.9983 45C45.9983 45.3955 45.8811 45.7821 45.6613 46.111C45.4416 46.4399 45.1292 46.6962 44.7638 46.8476C44.3984 46.9989 43.9963 47.0386 43.6083 46.9614C43.2204 46.8842 42.8641 46.6938 42.5844 46.4141C42.3047 46.1344 42.1142 45.778 42.0371 45.3901C41.9599 45.0022 41.9995 44.6001 42.1509 44.2346C42.3022 43.8692 42.5586 43.5569 42.8874 43.3371C43.2163 43.1174 43.603 43.0001 43.9985 43.0001C44.5287 43.0007 45.037 43.2116 45.4119 43.5865C45.7868 43.9614 45.9977 44.4697 45.9983 45V45Z" fill="white"/>
<path d="M31.9993 21.0018C32.4467 21.0022 32.8884 20.9021 33.2918 20.7086L35.999 23.4158V25.0015H37.9989V23.0016C37.9989 22.7364 37.8935 22.4821 37.706 22.2946L34.7059 19.2945C34.9861 18.7076 35.068 18.0457 34.9392 17.4083C34.8104 16.7709 34.478 16.1926 33.992 15.7605C33.506 15.3284 32.8928 15.066 32.2447 15.0128C31.5966 14.9595 30.9488 15.1183 30.3988 15.4652C29.8488 15.8122 29.4264 16.3284 29.1953 16.9362C28.9642 17.5441 28.9369 18.2105 29.1175 18.8352C29.2981 19.4599 29.6768 20.009 30.1966 20.3998C30.7163 20.7905 31.349 21.0018 31.9993 21.0018ZM31.9993 17.002C32.1971 17.002 32.3904 17.0607 32.5548 17.1706C32.7193 17.2804 32.8474 17.4366 32.9231 17.6193C32.9988 17.802 33.0186 18.0031 32.98 18.197C32.9414 18.391 32.8462 18.5692 32.7063 18.709C32.5665 18.8489 32.3883 18.9441 32.1944 18.9827C32.0004 19.0213 31.7994 19.0015 31.6166 18.9258C31.4339 18.8501 31.2778 18.7219 31.1679 18.5575C31.058 18.3931 30.9994 18.1997 30.9994 18.002C30.9997 17.7369 31.1051 17.4827 31.2926 17.2953C31.48 17.1078 31.7342 17.0023 31.9993 17.002V17.002Z" fill="white"/>
<path d="M20.0003 31.001C20.6204 31.0002 21.225 30.8076 21.7313 30.4496C22.2376 30.0915 22.6207 29.5856 22.828 29.0012H26.5856L28.2925 30.7081L29.7067 29.2941L27.7069 27.2942C27.5193 27.1067 27.265 27.0013 26.9998 27.0013H22.828C22.6447 26.4829 22.3223 26.0248 21.8962 25.6772C21.4701 25.3295 20.9567 25.1057 20.4119 25.0302C19.8672 24.9547 19.3122 25.0304 18.8076 25.249C18.303 25.4676 17.8683 25.8208 17.5508 26.2698C17.2333 26.7188 17.0454 27.2465 17.0076 27.7951C16.9698 28.3437 17.0835 28.8922 17.3363 29.3805C17.5891 29.8689 17.9714 30.2783 18.4412 30.5641C18.911 30.8499 19.4504 31.0011 20.0003 31.001V31.001ZM20.0003 27.0013C20.198 27.0013 20.3914 27.06 20.5558 27.1698C20.7202 27.2797 20.8484 27.4359 20.9241 27.6186C20.9998 27.8013 21.0196 28.0023 20.981 28.1963C20.9424 28.3903 20.8472 28.5685 20.7073 28.7083C20.5675 28.8481 20.3893 28.9434 20.1953 28.982C20.0014 29.0205 19.8003 29.0007 19.6176 28.9251C19.4349 28.8494 19.2787 28.7212 19.1689 28.5568C19.059 28.3923 19.0003 28.199 19.0003 28.0012C19.0006 27.7361 19.1061 27.482 19.2936 27.2945C19.481 27.1071 19.7352 27.0016 20.0003 27.0013V27.0013Z" fill="white"/>
<path d="M47.9983 69.1703V65.9985H45.9984V69.1703C45.3312 69.4062 44.7689 69.8704 44.4109 70.4807C44.0528 71.0911 43.9221 71.8084 44.0417 72.5058C44.1614 73.2033 44.5238 73.836 45.0648 74.2921C45.6058 74.7482 46.2907 74.9983 46.9983 74.9983C47.706 74.9983 48.3908 74.7482 48.9318 74.2921C49.4729 73.836 49.8352 73.2033 49.9549 72.5058C50.0746 71.8084 49.9438 71.0911 49.5858 70.4807C49.2277 69.8704 48.6654 69.4062 47.9983 69.1703V69.1703ZM46.9983 72.998C46.8006 72.998 46.6072 72.9394 46.4428 72.8295C46.2784 72.7196 46.1502 72.5635 46.0745 72.3808C45.9988 72.198 45.979 71.997 46.0176 71.803C46.0562 71.6091 46.1514 71.4309 46.2913 71.291C46.4311 71.1512 46.6093 71.056 46.8032 71.0174C46.9972 70.9788 47.1983 70.9986 47.381 71.0743C47.5637 71.15 47.7199 71.2781 47.8297 71.4426C47.9396 71.607 47.9983 71.8003 47.9983 71.9981C47.9979 72.2632 47.8925 72.5174 47.705 72.7048C47.5176 72.8923 47.2634 72.9977 46.9983 72.998V72.998Z" fill="white"/>
<path d="M45.9984 20.8297V24.0015H47.9983V20.8297C48.6654 20.5938 49.2277 20.1297 49.5858 19.5193C49.9438 18.909 50.0746 18.1917 49.9549 17.4942C49.8352 16.7968 49.4729 16.1641 48.9318 15.708C48.3908 15.2519 47.706 15.0017 46.9983 15.0017C46.2907 15.0017 45.6058 15.2519 45.0648 15.708C44.5238 16.1641 44.1614 16.7968 44.0417 17.4942C43.9221 18.1917 44.0528 18.909 44.4109 19.5193C44.7689 20.1297 45.3312 20.5938 45.9984 20.8297V20.8297ZM46.9983 17.002C47.1961 17.002 47.3894 17.0607 47.5539 17.1705C47.7183 17.2804 47.8465 17.4366 47.9221 17.6193C47.9978 17.802 48.0176 18.003 47.979 18.197C47.9405 18.391 47.8452 18.5692 47.7054 18.709C47.5655 18.8488 47.3874 18.9441 47.1934 18.9827C46.9994 19.0212 46.7984 19.0014 46.6157 18.9258C46.433 18.8501 46.2768 18.7219 46.1669 18.5575C46.057 18.393 45.9984 18.1997 45.9984 18.0019C45.9987 17.7368 46.1041 17.4827 46.2916 17.2952C46.4791 17.1078 46.7332 17.0023 46.9983 17.002V17.002Z" fill="white"/>
<path d="M28.2925 59.2919L26.5856 60.9989H22.828C22.5921 60.3317 22.128 59.7694 21.5176 59.4114C20.9073 59.0533 20.19 58.9226 19.4925 59.0422C18.7951 59.1619 18.1624 59.5243 17.7063 60.0653C17.2502 60.6063 17 61.2912 17 61.9988C17 62.7064 17.2502 63.3913 17.7063 63.9323C18.1624 64.4734 18.7951 64.8357 19.4925 64.9554C20.19 65.0751 20.9073 64.9443 21.5176 64.5863C22.128 64.2282 22.5921 63.6659 22.828 62.9987H26.9997C27.265 62.9987 27.5193 62.8934 27.7068 62.7059L29.7067 60.706L28.2925 59.2919ZM20.0002 62.9987C19.8025 62.9987 19.6091 62.9401 19.4447 62.8302C19.2803 62.7204 19.1521 62.5642 19.0764 62.3815C19.0007 62.1988 18.9809 61.9977 19.0195 61.8037C19.0581 61.6098 19.1533 61.4316 19.2932 61.2918C19.433 61.1519 19.6112 61.0567 19.8052 61.0181C19.9991 60.9795 20.2002 60.9993 20.3829 61.075C20.5656 61.1507 20.7218 61.2788 20.8316 61.4433C20.9415 61.6077 21.0002 61.801 21.0002 61.9988C20.9999 62.2639 20.8944 62.5181 20.707 62.7055C20.5195 62.893 20.2653 62.9984 20.0002 62.9987V62.9987Z" fill="white"/>
<path d="M37.292 65.2914L33.292 69.2914C32.6532 68.9862 31.9271 68.9167 31.2421 69.0951C30.557 69.2735 29.9571 69.6884 29.5483 70.2664C29.1396 70.8444 28.9483 71.5483 29.0084 72.2536C29.0684 72.959 29.3759 73.6204 29.8765 74.121C30.3771 74.6216 31.0385 74.9291 31.7439 74.9891C32.4492 75.0492 33.1531 74.8579 33.7311 74.4492C34.3091 74.0404 34.724 73.4405 34.9024 72.7554C35.0808 72.0704 35.0113 71.3443 34.7061 70.7055L38.7062 66.7055L37.292 65.2914ZM31.9995 72.9979C31.8017 72.9979 31.6084 72.9393 31.444 72.8294C31.2795 72.7195 31.1514 72.5634 31.0757 72.3806C31 72.1979 30.9802 71.9969 31.0188 71.8029C31.0574 71.6089 31.1526 71.4308 31.2924 71.2909C31.4323 71.1511 31.6104 71.0559 31.8044 71.0173C31.9984 70.9787 32.1994 70.9985 32.3821 71.0742C32.5649 71.1499 32.721 71.278 32.8309 71.4425C32.9408 71.6069 32.9994 71.8002 32.9994 71.998C32.9991 72.2631 32.8937 72.5173 32.7062 72.7047C32.5188 72.8922 32.2646 72.9976 31.9995 72.9979V72.9979Z" fill="white"/>
<path d="M61.9973 68.9982C61.5043 68.9977 61.019 69.1195 60.5846 69.3526L55.6378 65.2302L54.3577 66.7666L59.2341 70.8303C58.9832 71.4239 58.9302 72.0826 59.0829 72.7087C59.2356 73.3348 59.5859 73.8951 60.0819 74.3066C60.5779 74.7181 61.1932 74.959 61.8367 74.9935C62.4803 75.0279 63.1178 74.8542 63.655 74.4981C64.1921 74.142 64.6002 73.6223 64.819 73.0161C65.0377 72.4099 65.0554 71.7493 64.8694 71.1323C64.6834 70.5152 64.3037 69.9745 63.7864 69.5901C63.2691 69.2058 62.6417 68.9982 61.9973 68.9982V68.9982ZM61.9973 72.9979C61.7995 72.9979 61.6062 72.9393 61.4417 72.8294C61.2773 72.7195 61.1491 72.5634 61.0734 72.3806C60.9978 72.1979 60.978 71.9969 61.0165 71.8029C61.0551 71.6089 61.1504 71.4308 61.2902 71.2909C61.43 71.1511 61.6082 71.0559 61.8022 71.0173C61.9961 70.9787 62.1972 70.9985 62.3799 71.0742C62.5626 71.1499 62.7188 71.278 62.8287 71.4425C62.9385 71.6069 62.9972 71.8002 62.9972 71.998C62.9969 72.2631 62.8914 72.5173 62.704 72.7047C62.5165 72.8922 62.2624 72.9976 61.9973 72.9979V72.9979Z" fill="white"/>
<path d="M73.9963 58.999C73.3762 58.9998 72.7715 59.1924 72.2652 59.5505C71.7589 59.9085 71.3758 60.4145 71.1685 60.9989H67.4109L65.704 59.2919L64.2898 60.706L66.2897 62.7058C66.4772 62.8934 66.7315 62.9987 66.9968 62.9987H71.1685C71.3518 63.5172 71.6742 63.9753 72.1003 64.3229C72.5264 64.6705 73.0399 64.8943 73.5846 64.9698C74.1293 65.0453 74.6843 64.9696 75.1889 64.751C75.6935 64.5324 76.1283 64.1793 76.4457 63.7303C76.7632 63.2812 76.9511 62.7536 76.9889 62.2049C77.0268 61.6563 76.913 61.1079 76.6602 60.6195C76.4074 60.1312 76.0252 59.7217 75.5553 59.4359C75.0855 59.1501 74.5462 58.999 73.9963 58.999V58.999ZM73.9963 62.9987C73.7985 62.9987 73.6052 62.9401 73.4407 62.8302C73.2763 62.7203 73.1481 62.5642 73.0724 62.3815C72.9968 62.1988 72.977 61.9977 73.0155 61.8037C73.0541 61.6098 73.1494 61.4316 73.2892 61.2918C73.429 61.1519 73.6072 61.0567 73.8012 61.0181C73.9951 60.9795 74.1962 60.9993 74.3789 61.075C74.5616 61.1507 74.7178 61.2788 74.8277 61.4433C74.9375 61.6077 74.9962 61.801 74.9962 61.9988C74.9959 62.2639 74.8904 62.5181 74.703 62.7055C74.5155 62.893 74.2614 62.9984 73.9963 62.9987V62.9987Z" fill="white"/>
<path d="M57.9974 23.4157L60.7046 20.7086C61.3434 21.0137 62.0695 21.0832 62.7545 20.9048C63.4396 20.7264 64.0395 20.3115 64.4483 19.7335C64.857 19.1555 65.0483 18.4516 64.9882 17.7463C64.9281 17.0409 64.6207 16.3795 64.1201 15.8789C63.6195 15.3784 62.9581 15.0709 62.2527 15.0108C61.5474 14.9508 60.8435 15.142 60.2655 15.5508C59.6875 15.9595 59.2726 16.5595 59.0942 17.2445C58.9158 17.9296 58.9853 18.6557 59.2905 19.2944L56.2904 22.2945C56.1029 22.4821 55.9976 22.7364 55.9976 23.0016V25.0014H57.9974V23.4157ZM61.9971 17.002C62.1949 17.002 62.3882 17.0606 62.5527 17.1705C62.7171 17.2804 62.8453 17.4366 62.9209 17.6193C62.9966 17.802 63.0164 18.003 62.9778 18.197C62.9393 18.391 62.844 18.5691 62.7042 18.709C62.5643 18.8488 62.3862 18.9441 62.1922 18.9826C61.9982 19.0212 61.7972 19.0014 61.6145 18.9257C61.4318 18.8501 61.2756 18.7219 61.1657 18.5575C61.0558 18.393 60.9972 18.1997 60.9972 18.0019C60.9975 17.7368 61.1029 17.4827 61.2904 17.2952C61.4779 17.1078 61.732 17.0023 61.9971 17.002V17.002Z" fill="white"/>
<path d="M65.704 30.7082L67.4109 29.0012H71.1685C71.4044 29.6683 71.8685 30.2306 72.4789 30.5887C73.0892 30.9468 73.8065 31.0775 74.504 30.9578C75.2014 30.8382 75.8341 30.4758 76.2902 29.9348C76.7463 29.3937 76.9965 28.7089 76.9965 28.0013C76.9965 27.2936 76.7463 26.6088 76.2902 26.0677C75.8341 25.5267 75.2014 25.1643 74.504 25.0447C73.8065 24.925 73.0892 25.0558 72.4789 25.4138C71.8685 25.7719 71.4044 26.3342 71.1685 27.0013H66.9968C66.7315 27.0013 66.4772 27.1067 66.2897 27.2942L64.2898 29.2941L65.704 30.7082ZM73.9963 27.0013C74.194 27.0013 74.3873 27.06 74.5518 27.1698C74.7162 27.2797 74.8444 27.4359 74.9201 27.6186C74.9957 27.8013 75.0155 28.0024 74.977 28.1963C74.9384 28.3903 74.8432 28.5685 74.7033 28.7083C74.5635 28.8482 74.3853 28.9434 74.1913 28.982C73.9974 29.0206 73.7963 29.0008 73.6136 28.9251C73.4309 28.8494 73.2747 28.7212 73.1648 28.5568C73.055 28.3923 72.9963 28.199 72.9963 28.0013C72.9966 27.7362 73.1021 27.482 73.2895 27.2945C73.477 27.1071 73.7311 27.0016 73.9963 27.0013V27.0013Z" fill="white"/>
<path d="M73.9963 38.0005C73.2887 38.0004 72.6038 38.2505 72.0628 38.7066C71.5218 39.1627 71.1594 39.7953 71.0397 40.4927C70.92 41.1902 71.0508 41.9074 71.4088 42.5178C71.7669 43.1281 72.3292 43.5922 72.9964 43.828V50.9996H69.9966V52.9994H73.9963C74.2615 52.9994 74.5158 52.8941 74.7033 52.7065C74.8909 52.519 74.9962 52.2647 74.9962 51.9995V43.828C75.6634 43.5922 76.2257 43.1281 76.5837 42.5178C76.9418 41.9074 77.0725 41.1902 76.9529 40.4927C76.8332 39.7953 76.4708 39.1627 75.9298 38.7066C75.3888 38.2505 74.7039 38.0004 73.9963 38.0005V38.0005ZM73.9963 42.0002C73.7985 42.0002 73.6052 41.9416 73.4408 41.8317C73.2763 41.7218 73.1482 41.5656 73.0725 41.3829C72.9968 41.2002 72.977 40.9992 73.0156 40.8052C73.0542 40.6112 73.1494 40.4331 73.2892 40.2932C73.4291 40.1534 73.6073 40.0581 73.8012 40.0196C73.9952 39.981 74.1962 40.0008 74.3789 40.0765C74.5617 40.1521 74.7178 40.2803 74.8277 40.4447C74.9376 40.6092 74.9962 40.8025 74.9962 41.0003C74.9959 41.2654 74.8905 41.5195 74.703 41.707C74.5156 41.8945 74.2614 41.9999 73.9963 42.0002V42.0002Z" fill="white"/>
<path d="M20.0003 52.9994C20.7079 52.9995 21.3927 52.7494 21.9338 52.2933C22.4748 51.8372 22.8372 51.2046 22.9569 50.5072C23.0765 49.8097 22.9458 49.0925 22.5877 48.4821C22.2297 47.8718 21.6674 47.4077 21.0002 47.1719V40.0003H24V38.0005H20.0003C19.7351 38.0005 19.4807 38.1058 19.2932 38.2934C19.1057 38.4809 19.0004 38.7352 19.0004 39.0004V47.1719C18.3332 47.4077 17.7709 47.8718 17.4128 48.4821C17.0548 49.0925 16.924 49.8097 17.0437 50.5072C17.1634 51.2046 17.5257 51.8372 18.0668 52.2933C18.6078 52.7494 19.2927 52.9995 20.0003 52.9994V52.9994ZM20.0003 48.9997C20.198 48.9997 20.3914 49.0583 20.5558 49.1682C20.7202 49.2781 20.8484 49.4343 20.9241 49.617C20.9998 49.7997 21.0196 50.0007 20.981 50.1947C20.9424 50.3887 20.8472 50.5668 20.7073 50.7067C20.5675 50.8465 20.3893 50.9418 20.1954 50.9803C20.0014 51.0189 19.8003 50.9991 19.6176 50.9234C19.4349 50.8478 19.2787 50.7196 19.1689 50.5552C19.059 50.3907 19.0004 50.1974 19.0004 49.9996C19.0007 49.7345 19.1061 49.4804 19.2936 49.2929C19.481 49.1054 19.7352 49 20.0003 48.9997V48.9997Z" fill="white"/>
</svg>
