<svg width="60" height="61" viewBox="0 0 60 61" fill="none" xmlns="http://www.w3.org/2000/svg">
<path d="M29.2301 24.0044L38.2301 14.0105C39.3385 12.7796 39.2387 10.8838 38.0071 9.77606C36.7755 8.6683 34.8785 8.76808 33.7701 9.99893L26.8851 17.6443L26.1221 16.8807C24.9343 15.7494 23.0669 15.7494 21.8791 16.8807C21.3164 17.443 21.0002 18.2057 21.0002 19.0009C21.0002 19.7962 21.3164 20.5589 21.8791 21.1212L24.8791 24.1193C25.4611 24.7008 26.2566 25.0178 27.0793 24.996C27.902 24.9743 28.6796 24.6158 29.2301 24.0044ZM26.2931 22.7052L23.2931 19.707C23.0331 19.4561 22.9289 19.0845 23.0204 18.7351C23.1119 18.3857 23.385 18.1128 23.7346 18.0213C24.0842 17.9299 24.456 18.0341 24.7071 18.2939L26.2171 19.802C26.4111 19.9957 26.6761 20.1014 26.9503 20.0942C27.2244 20.087 27.4836 19.9676 27.6671 19.764L35.2561 11.3371C35.4949 11.0715 35.8574 10.9533 36.207 11.0272C36.5567 11.1011 36.8403 11.3558 36.951 11.6953C37.0618 12.0349 36.9829 12.4077 36.7441 12.6733L27.7441 22.6672C27.5605 22.8712 27.3012 22.9908 27.0268 22.9979C26.7524 23.0051 26.4871 22.8993 26.2931 22.7052Z" fill="#1A82FF"/>
<path d="M57 23.9975H48.652C47.4413 23.9973 46.3811 24.809 46.066 25.9773H43.221C47.9519 19.0448 46.516 9.63694 39.9323 4.42928C33.3486 -0.778378 23.8568 -0.0140896 18.1923 6.17982C12.5278 12.3737 12.6176 21.89 18.398 27.976L13.934 27.97C13.6169 26.804 12.5571 25.995 11.348 25.9962H3C1.34315 25.9962 0 27.3386 0 28.9944V46.9835C0 48.6393 1.34315 49.9816 3 49.9816H7.958C9.17347 49.9801 10.2346 49.1586 10.54 47.9829H12.264L11.135 50.981C10.8069 51.8475 10.8375 52.8089 11.2201 53.6528C11.6027 54.4967 12.3058 55.1535 13.174 55.4783C14.0555 55.8043 15.031 55.7633 15.882 55.3644C15.887 55.3764 15.889 55.3893 15.894 55.4013C16.2805 56.2517 16.9912 56.9122 17.8678 57.2359C18.7445 57.5595 19.7142 57.5193 20.561 57.1243C20.9383 57.9862 21.6481 58.6592 22.5291 58.9904C23.4102 59.3216 24.3878 59.283 25.24 58.8832C25.245 58.8942 25.246 58.9062 25.251 58.9182C25.8336 60.2082 27.1366 61.0201 28.552 60.9753C29.9674 60.9304 31.2163 60.0376 31.716 58.7133L31.776 58.5544L35.176 60.2144C36.012 60.6179 36.9747 60.671 37.8501 60.3619C38.7255 60.0529 39.4411 59.4072 39.838 58.5684C40.2369 57.7183 40.2804 56.7443 39.959 55.8621L39.994 55.8501C40.8742 55.5379 41.5931 54.8872 41.9907 54.0425C42.3883 53.1979 42.4316 52.2295 42.111 51.3528L42.143 51.3408C43.0234 51.0289 43.7425 50.3782 44.1403 49.5336C44.5381 48.6889 44.5816 47.7204 44.261 46.8435C44.7677 46.6642 45.226 46.37 45.6 45.9841H49.46C49.7656 47.1596 50.8266 47.981 52.042 47.9829H57C58.6568 47.9829 60 46.6405 60 44.9847V26.9956C60 25.3398 58.6568 23.9975 57 23.9975ZM16 17.0017C15.9911 10.8161 20.0475 5.35872 25.9757 3.58067C31.9039 1.80261 38.2968 4.12589 41.6975 9.2942C45.0981 14.4625 44.6995 21.2491 40.717 25.9842L31.35 25.9962C30.2079 25.997 29.1189 26.4784 28.35 27.3224L27.74 27.995L21.351 27.986C17.963 25.3491 15.9873 21.2933 16 17.0017ZM7.958 47.9829H3C2.44771 47.9829 2 47.5354 2 46.9835V28.9944C2 28.4425 2.44771 27.995 3 27.995H11.348C11.5492 27.9951 11.7401 28.0843 11.8691 28.2387C11.998 28.3931 12.0519 28.5966 12.016 28.7945L8.627 47.4252C8.56843 47.7484 8.28665 47.9833 7.958 47.9829ZM13.875 53.6074C13.5036 53.4689 13.2029 53.1879 13.0396 52.827C12.8763 52.466 12.8638 52.0548 13.005 51.6846L14.417 47.9419C14.7267 47.2025 15.5636 46.8375 16.3167 47.1132C17.0697 47.3889 17.4725 48.2079 17.231 48.9723L15.8 52.737C15.5064 53.5062 14.647 53.8948 13.875 53.6074ZM18.554 55.3624C18.1826 55.2237 17.8816 54.943 17.7177 54.5822C17.5537 54.2215 17.5401 53.8103 17.68 53.4395C17.798 53.1287 19.48 48.6714 19.444 48.7754C19.7562 48.0334 20.599 47.6703 21.3531 47.9528C22.1073 48.2352 22.5036 49.0625 22.251 49.8267L20.488 54.4919C20.1918 55.2635 19.3285 55.6521 18.554 55.3624ZM23.233 57.1213C22.8616 56.9826 22.5606 56.7019 22.3967 56.3412C22.2327 55.9804 22.2191 55.5692 22.359 55.1985L24.123 50.5333C24.4338 49.7888 25.2784 49.4237 26.0341 49.707C26.7899 49.9904 27.1858 50.8206 26.93 51.5857C26.666 52.2852 25.064 56.5207 25.167 56.2498C25.0262 56.6217 24.7433 56.9225 24.3806 57.0859C24.0179 57.2493 23.6051 57.2621 23.233 57.1213ZM27.911 58.8762C27.5394 58.7378 27.2384 58.4571 27.0745 58.0962C26.9107 57.7353 26.8975 57.324 27.038 56.9534L28.096 54.1551C28.4156 53.4244 29.2518 53.0717 29.9986 53.3525C30.7455 53.6333 31.1416 54.4494 30.9 55.2094L29.842 58.0077C29.5476 58.7794 28.6841 59.1677 27.911 58.8762ZM44.474 44.1852C44.1099 44.917 43.2296 45.2269 42.487 44.8847L39.787 43.5955C39.2979 43.3994 38.7404 43.6164 38.5128 44.0914C38.2852 44.5665 38.4655 45.1365 38.925 45.3944L41.625 46.6806L41.633 46.6876C42.3557 47.0565 42.6539 47.9329 42.3059 48.6656C41.9578 49.3983 41.0899 49.7215 40.347 49.395L37.447 48.0068C36.9569 47.8059 36.3951 48.0217 36.1658 48.4989C35.9366 48.9762 36.1196 49.5493 36.583 49.8057L39.483 51.1939C40.2011 51.5654 40.4954 52.4388 40.1483 53.1687C39.8012 53.8986 38.9377 54.2222 38.196 53.9002H38.181L35.443 52.586C34.9519 52.3795 34.385 52.5941 34.154 53.0739C33.923 53.5538 34.109 54.1303 34.577 54.385L37.327 55.7042C38.0708 56.0676 38.3831 56.9619 38.027 57.7089C37.8579 58.0641 37.5543 58.3375 37.1832 58.4688C36.8121 58.6 36.404 58.5783 36.049 58.4085L32.486 56.6776L32.774 55.915C33.2181 54.7607 33.0136 53.4574 32.2372 52.4945C31.4608 51.5315 30.23 51.0546 29.007 51.2429C29.0762 50.0188 28.4957 48.8487 27.4788 48.1629C26.4619 47.477 25.1589 47.3767 24.049 47.8989C24.049 47.8869 24.042 47.8739 24.037 47.8619C23.5977 46.8897 22.7372 46.1719 21.7014 45.9137C20.6657 45.6556 19.5687 45.8855 18.724 46.5377C17.7695 45.1146 15.9253 44.59 14.364 45.2975C13.9975 45.4673 13.6633 45.6993 13.376 45.9831H10.922L13.834 29.9748L25.924 29.9938L21.173 35.2176C19.7486 36.7849 19.8011 39.1923 21.2925 40.6961C22.7839 42.1998 25.1921 42.2737 26.773 40.8642L32 36.1451L43.77 42.1784C44.5174 42.5396 44.8321 43.4366 44.474 44.1852ZM33.585 34.7129L34.669 33.7345C35.0791 33.3647 35.1115 32.7327 34.7415 32.3229C34.3715 31.9131 33.7391 31.8806 33.329 32.2504L25.437 39.3721C24.65 40.0765 23.4484 40.0402 22.7054 39.2894C21.9625 38.5387 21.9394 37.3375 22.653 36.5588L29.832 28.6636C30.2223 28.2375 30.7739 27.9949 31.352 27.995C41.452 27.987 42.546 27.981 46.166 27.976L49.078 43.9853H46.578C46.7806 42.4981 46.0073 41.0484 44.659 40.3875L33.585 34.7129ZM58 44.9847C58 45.5366 57.5523 45.9841 57 45.9841H52.042C51.7136 45.9846 51.432 45.7502 51.373 45.4274L47.984 26.7958C47.9481 26.5979 48.0019 26.3943 48.1309 26.2399C48.2599 26.0855 48.4507 25.9963 48.652 25.9962H57C57.5523 25.9962 58 26.4437 58 26.9956V44.9847Z" fill="#1A82FF"/>
</svg>
