<svg width="60" height="60" viewBox="0 0 60 60" fill="none" xmlns="http://www.w3.org/2000/svg">
<path d="M32.8711 23.9062C32.8711 24.3915 33.2648 24.7852 33.75 24.7852H35.2148V35.2148H24.7852V24.7852H30C30.4852 24.7852 30.8789 24.3915 30.8789 23.9062C30.8789 23.421 30.4852 23.0273 30 23.0273H24.375C23.632 23.0273 23.0273 23.632 23.0273 24.375V35.625C23.0273 36.368 23.632 36.9727 24.375 36.9727H35.625C36.368 36.9727 36.9727 36.368 36.9727 35.625V24.375C36.9727 23.632 36.368 23.0273 35.625 23.0273H33.75C33.2648 23.0273 32.8711 23.421 32.8711 23.9062Z" fill="#1A82FF"/>
<path d="M4.86328 3.51562C4.12033 3.51562 3.51562 4.12033 3.51562 4.86328V10.957C3.51562 11.7 4.12033 12.3047 4.86328 12.3047H10.957C11.7 12.3047 12.3047 11.7 12.3047 10.957V4.86328C12.3047 4.12033 11.7 3.51562 10.957 3.51562H4.86328ZM10.5469 10.5469H5.27344V5.27344H10.5469V10.5469Z" fill="#1A82FF"/>
<path d="M10.957 47.6953H4.86328C4.12033 47.6953 3.51562 48.3 3.51562 49.043V55.1367C3.51562 55.8797 4.12033 56.4844 4.86328 56.4844H10.957C11.7 56.4844 12.3047 55.8797 12.3047 55.1367V49.043C12.3047 48.3 11.7 47.6953 10.957 47.6953ZM10.5469 54.7266H5.27344V49.4531H10.5469V54.7266Z" fill="#1A82FF"/>
<path d="M46.4648 15.8203H57.7148C58.9751 15.8203 60 14.7954 60 13.5352V2.28516C60 1.02493 58.9751 0 57.7148 0H46.4648C45.2046 0 44.1797 1.02493 44.1797 2.28516V7.03125H33.6328C33.1476 7.03125 32.7539 7.42493 32.7539 7.91016V19.5117H27.9492V16.0794C28.9723 15.7164 29.707 14.7395 29.707 13.5938C29.707 12.1399 28.5242 10.957 27.0703 10.957C25.6165 10.957 24.4336 12.1399 24.4336 13.5938C24.4336 14.7395 25.1683 15.7164 26.1914 16.0794V19.5117H22.2647C20.7468 19.5117 19.5117 20.7468 19.5117 22.2647V27.3633H8.78906V15.8203H13.5352C14.7954 15.8203 15.8203 14.7954 15.8203 13.5352V11.25C15.8203 10.7648 15.4266 10.3711 14.9414 10.3711C14.4562 10.3711 14.0625 10.7648 14.0625 11.25V13.5352C14.0625 13.8258 13.8258 14.0625 13.5352 14.0625H2.28516C1.99448 14.0625 1.75781 13.8258 1.75781 13.5352V2.28516C1.75781 1.99448 1.99448 1.75781 2.28516 1.75781H13.5352C13.8258 1.75781 14.0625 1.99448 14.0625 2.28516V7.5C14.0625 7.98523 14.4562 8.37891 14.9414 8.37891C15.4266 8.37891 15.8203 7.98523 15.8203 7.5V2.28516C15.8203 1.02493 14.7954 0 13.5352 0H2.28516C1.02493 0 0 1.02493 0 2.28516V13.5352C0 14.7954 1.02493 15.8203 2.28516 15.8203H7.03125V28.2422C7.03125 28.7274 7.42493 29.1211 7.91016 29.1211H19.5117V32.8711H18.306C17.943 31.848 16.9661 31.1133 15.8203 31.1133C14.3665 31.1133 13.1836 32.2961 13.1836 33.75C13.1836 35.2039 14.3665 36.3867 15.8203 36.3867C16.9661 36.3867 17.943 35.652 18.306 34.6289H19.5117V37.7353C19.5117 39.2532 20.7468 40.4883 22.2647 40.4883H26.1914V50.928H15.8203V46.4648C15.8203 45.2046 14.7954 44.1797 13.5352 44.1797H2.28516C1.02493 44.1797 0 45.2046 0 46.4648V57.7148C0 58.9751 1.02493 60 2.28516 60H13.5352C14.7954 60 15.8203 58.9751 15.8203 57.7148V52.6859H27.0703C27.5555 52.6859 27.9492 52.2922 27.9492 51.8069V40.4883H32.7539V44.3893C31.7308 44.7523 30.9961 45.7292 30.9961 46.875C30.9961 48.3289 32.179 49.5117 33.6328 49.5117C35.0867 49.5117 36.2695 48.3289 36.2695 46.875C36.2695 45.7292 35.5348 44.7523 34.5117 44.3893V40.4883H37.7353C39.2532 40.4883 40.4883 39.2532 40.4883 37.7353V31.7519H51.2123V44.1797H46.4648C45.2046 44.1797 44.1797 45.2046 44.1797 46.4648V48.75C44.1797 49.2352 44.5734 49.6289 45.0586 49.6289C45.5438 49.6289 45.9375 49.2352 45.9375 48.75V46.4648C45.9375 46.1742 46.1742 45.9375 46.4648 45.9375H57.7148C58.0055 45.9375 58.2422 46.1742 58.2422 46.4648V57.7148C58.2422 58.0055 58.0055 58.2422 57.7148 58.2422H46.4648C46.1742 58.2422 45.9375 58.0055 45.9375 57.7148V52.4854C45.9375 52.0001 45.5438 51.6064 45.0586 51.6064C44.5734 51.6064 44.1797 52.0001 44.1797 52.4854V57.7148C44.1797 58.9751 45.2046 60 46.4648 60H57.7148C58.9751 60 60 58.9751 60 57.7148V46.4648C60 45.2046 58.9751 44.1797 57.7148 44.1797H52.9701V30.873C52.9701 30.3877 52.5764 29.994 52.0912 29.994H40.4883V27.0117H44.6764C45.0394 28.0348 46.0162 28.7695 47.162 28.7695C48.6159 28.7695 49.7987 27.5867 49.7987 26.1328C49.7987 24.679 48.6159 23.4961 47.162 23.4961C46.0162 23.4961 45.0394 24.2308 44.6764 25.2539H40.4883V22.2647C40.4883 20.7468 39.2532 19.5117 37.7353 19.5117H34.5117V8.78906H44.1797V13.5352C44.1797 14.7954 45.2046 15.8203 46.4648 15.8203ZM27.0703 12.7148C27.5551 12.7148 27.9492 13.109 27.9492 13.5938C27.9492 14.0785 27.5551 14.4727 27.0703 14.4727C26.5855 14.4727 26.1914 14.0785 26.1914 13.5938C26.1914 13.109 26.5855 12.7148 27.0703 12.7148ZM15.8203 34.6289C15.3355 34.6289 14.9414 34.2348 14.9414 33.75C14.9414 33.2652 15.3355 32.8711 15.8203 32.8711C16.3051 32.8711 16.6992 33.2652 16.6992 33.75C16.6992 34.2348 16.3051 34.6289 15.8203 34.6289ZM14.0625 57.7148C14.0625 58.0055 13.8258 58.2422 13.5352 58.2422H2.28516C1.99448 58.2422 1.75781 58.0055 1.75781 57.7148V46.4648C1.75781 46.1742 1.99448 45.9375 2.28516 45.9375H13.5352C13.8258 45.9375 14.0625 46.1742 14.0625 46.4648V57.7148ZM33.6328 47.7539C33.148 47.7539 32.7539 47.3598 32.7539 46.875C32.7539 46.3902 33.148 45.9961 33.6328 45.9961C34.1176 45.9961 34.5117 46.3902 34.5117 46.875C34.5117 47.3598 34.1176 47.7539 33.6328 47.7539ZM47.162 25.2539C47.6468 25.2539 48.0409 25.648 48.0409 26.1328C48.0409 26.6176 47.6468 27.0117 47.162 27.0117C46.6772 27.0117 46.2831 26.6176 46.2831 26.1328C46.2831 25.648 46.6772 25.2539 47.162 25.2539ZM38.7305 22.2647V37.7353C38.7305 38.2841 38.2841 38.7305 37.7353 38.7305H22.2647C21.7159 38.7305 21.2695 38.2841 21.2695 37.7353V22.2647C21.2695 21.7159 21.7159 21.2695 22.2647 21.2695H37.7353C38.2841 21.2695 38.7305 21.7159 38.7305 22.2647ZM46.4648 1.75781H57.7148C58.0055 1.75781 58.2422 1.99448 58.2422 2.28516V13.5352C58.2422 13.8258 58.0055 14.0625 57.7148 14.0625H46.4648C46.1742 14.0625 45.9375 13.8258 45.9375 13.5352V7.93304C45.938 7.92526 45.9389 7.91794 45.9389 7.91016C45.9389 7.90237 45.938 7.89505 45.9375 7.88727V2.28516C45.9375 1.99448 46.1742 1.75781 46.4648 1.75781Z" fill="#1A82FF"/>
<path d="M49.043 12.3047H55.1367C55.8797 12.3047 56.4844 11.7 56.4844 10.957V4.86328C56.4844 4.12033 55.8797 3.51562 55.1367 3.51562H49.043C48.3 3.51562 47.6953 4.12033 47.6953 4.86328V10.957C47.6953 11.7 48.3 12.3047 49.043 12.3047ZM49.4531 5.27344H54.7266V10.5469H49.4531V5.27344Z" fill="#1A82FF"/>
<path d="M55.1367 56.4844C55.8797 56.4844 56.4844 55.8797 56.4844 55.1367V49.043C56.4844 48.3 55.8797 47.6953 55.1367 47.6953H49.043C48.3 47.6953 47.6953 48.3 47.6953 49.043V55.1367C47.6953 55.8797 48.3 56.4844 49.043 56.4844H55.1367ZM49.4531 49.4531H54.7266V54.7266H49.4531V49.4531Z" fill="#1A82FF"/>
</svg>
