<svg width="60" height="60" viewBox="0 0 60 60" fill="none" xmlns="http://www.w3.org/2000/svg">
<g clip-path="url(#clip0_194_92808)">
<path d="M29.6685 40.0064C29.9473 40.1707 30.3071 40.1675 30.5818 39.9954L38.6087 34.9618C38.865 34.8012 39.0207 34.5201 39.0207 34.2175V25.91C39.0271 25.8674 39.0312 25.8244 39.0312 25.7804C39.0312 25.4774 38.8751 25.1959 38.6183 25.0352L30.5809 20.0131C30.2961 19.835 29.9345 19.835 29.6493 20.0131L21.6119 25.0352C21.3583 25.1941 21.199 25.4834 21.199 25.7823V34.2175C21.199 34.5201 21.3551 34.8016 21.6114 34.9623L29.6489 39.9959C29.6553 39.9995 29.6621 40.0023 29.6685 40.0064V40.0064ZM30.9938 37.6622V31.2896L37.2629 27.3726V33.7309L30.9938 37.6622ZM30.1149 21.7947L36.4892 25.7777L30.1149 29.7657L23.7364 25.7804L30.1149 21.7947ZM22.9568 27.3661L29.2364 31.2896V37.6636L22.9568 33.7309V27.3661Z" fill="#1A82FF"/>
<path d="M0.529511 15.0893L8.56694 20.1229C8.84709 20.2982 9.21971 20.2977 9.49987 20.1224L17.5268 15.0888C17.7831 14.9281 17.9388 14.6471 17.9388 14.3445V6.03606C17.9452 5.99394 17.9493 5.95091 17.9493 5.90743C17.9493 5.60439 17.7932 5.3224 17.5364 5.16219L9.49895 0.140048C8.53765 -0.460539 7.60609 1.02994 8.5674 1.63053L15.4073 5.90468L9.03295 9.89318L2.65445 5.90743L5.62123 4.05348C6.58299 3.45289 5.65144 1.96195 4.69013 2.56254L0.529969 5.16219C0.277283 5.32011 0.117065 5.60942 0.117065 5.90743V14.3445C0.117065 14.6471 0.272705 14.9286 0.529511 15.0893V15.0893ZM1.87442 7.49267L2.01404 7.5801L8.15404 11.4166V17.7905L1.87442 13.8579V7.49267ZM9.91185 17.7892V11.4166L16.1809 7.49953V13.8583L9.91185 17.7892Z" fill="#1A82FF"/>
<path d="M42.6933 15.0892L50.7308 20.1228C51.0105 20.2986 51.384 20.2972 51.6637 20.1224L59.6906 15.0888C59.947 14.9281 60.1026 14.647 60.1026 14.3445V6.03695C60.109 5.99438 60.1131 5.95135 60.1131 5.9074C60.1131 5.60436 59.957 5.32283 59.7002 5.16216L51.6628 0.140023C51.3781 -0.0380479 51.0164 -0.0380479 50.7312 0.140023L42.6942 5.16216C42.4411 5.32009 42.2809 5.6094 42.2809 5.9074V14.3445C42.2809 14.647 42.437 14.9286 42.6933 15.0892V15.0892ZM44.0387 7.49264L50.3183 11.4166V17.7905L44.0387 13.8579V7.49264ZM52.0757 17.7891V11.4166L58.3452 7.49951V13.8583L52.0757 17.7891ZM51.1972 1.92164L57.5716 5.90465L51.1968 9.89316L44.8183 5.9074L51.1972 1.92164Z" fill="#1A82FF"/>
<path d="M17.5364 44.9081L9.49895 39.886C9.21376 39.7079 8.85213 39.7079 8.5674 39.886L0.529969 44.9081C0.277283 45.0661 0.117065 45.3549 0.117065 45.6534V54.09C0.117065 54.393 0.272705 54.6745 0.529511 54.8352L8.56694 59.8688C8.84709 60.0441 9.21971 60.0437 9.50032 59.8683L17.5272 54.8348C17.7836 54.6741 17.9392 54.3926 17.9392 54.09V45.782C17.9452 45.7399 17.9493 45.6969 17.9493 45.6534C17.9493 45.3503 17.7932 45.0688 17.5364 44.9081ZM9.03295 41.6676L15.4073 45.6506L9.03295 49.6391L2.65445 45.6534L9.03295 41.6676ZM1.87442 47.2386L2.01404 47.326L8.15404 51.1626V57.5365L1.87442 53.6034V47.2386ZM9.91185 57.5356V51.1626L16.1809 47.2455V53.6043L9.91185 57.5356Z" fill="#1A82FF"/>
<path d="M59.7002 44.9081L51.6628 39.886C51.3776 39.7079 51.016 39.7079 50.7312 39.886L42.6938 44.9081C42.4411 45.0661 42.2809 45.3549 42.2809 45.6534V54.09C42.2809 54.393 42.437 54.6745 42.6933 54.8352L50.7308 59.8688C51.3053 60.2268 52.0757 59.8061 52.0757 59.124V51.1626L58.3452 47.2455V53.6038L54.9591 55.7274C54.5476 55.9851 54.4236 56.5276 54.6817 56.9387C54.9395 57.3502 55.4819 57.4742 55.893 57.2165L59.6906 54.8348C59.947 54.6741 60.1026 54.3926 60.1026 54.09V45.7829C60.109 45.7403 60.1131 45.6969 60.1131 45.6534C60.1131 45.3503 59.957 45.0688 59.7002 44.9081V44.9081ZM51.1972 41.6676L57.5716 45.6506L51.1968 49.6391L44.8183 45.6534L51.1972 41.6676ZM44.0387 47.2386L50.3183 51.1626V57.5365L44.0387 53.6034V47.2386Z" fill="#1A82FF"/>
<path d="M22.2345 10.5524H37.9367C39.0706 10.5524 39.0706 8.79504 37.9367 8.79504H22.2345C21.101 8.79504 21.101 10.5524 22.2345 10.5524Z" fill="#1A82FF"/>
<path d="M37.9953 49.4564H22.2931C21.1596 49.4564 21.1596 51.2142 22.2931 51.2142H37.9953C39.1292 51.2142 39.1292 49.4564 37.9953 49.4564Z" fill="#1A82FF"/>
<path d="M50.2703 24.7468V35.2236C50.2703 35.7089 50.6635 36.1021 51.1487 36.1021C51.6344 36.1021 52.0276 35.7089 52.0276 35.2236V24.7468C52.0276 23.6129 50.2703 23.6129 50.2703 24.7468V24.7468Z" fill="#1A82FF"/>
<path d="M8.20215 24.7857V35.2626C8.20215 35.7478 8.59583 36.1415 9.08106 36.1415C9.56674 36.1415 9.95996 35.7478 9.95996 35.2626V24.7857C9.95996 23.6518 8.20215 23.6518 8.20215 24.7857Z" fill="#1A82FF"/>
<path d="M42.567 18.2941L38.6065 20.9144C37.8919 21.3868 38.2485 22.5262 39.0922 22.5262C39.2583 22.5262 39.4268 22.479 39.576 22.3802L43.5366 19.7599C44.4819 19.1346 43.5123 17.6684 42.567 18.2941Z" fill="#1A82FF"/>
<path d="M20.6543 22.3802C20.8035 22.479 20.9715 22.5262 21.1381 22.5262C21.9814 22.5262 22.3384 21.3868 21.6238 20.9144L17.6633 18.2941C16.718 17.6684 15.7484 19.1346 16.6937 19.7599L20.6543 22.3802Z" fill="#1A82FF"/>
<path d="M17.1794 42.4467C17.3461 42.4467 17.5141 42.3995 17.6633 42.3007L21.6239 39.6809C22.5696 39.0556 21.5996 37.5889 20.6543 38.2146L16.6938 40.8349C15.9792 41.3073 16.3362 42.4467 17.1794 42.4467V42.4467Z" fill="#1A82FF"/>
<path d="M38.6064 39.6804L42.567 42.3007C42.7162 42.3996 42.8842 42.4467 43.0508 42.4467C43.894 42.4467 44.2511 41.3073 43.5365 40.8349L39.5759 38.2147C38.6306 37.5889 37.6606 39.0551 38.6064 39.6804Z" fill="#1A82FF"/>
</g>
<defs>
<clipPath id="clip0_194_92808">
<rect width="60" height="60" fill="white"/>
</clipPath>
</defs>
</svg>
