<svg width="80" height="80" viewBox="0 0 80 80" fill="none" xmlns="http://www.w3.org/2000/svg">
<circle opacity="0.1" cx="40" cy="40" r="40" fill="white"/>
<path d="M44 37.9998H39C38.337 37.9998 37.7011 37.7364 37.2322 37.2676C36.7634 36.7988 36.5 36.1629 36.5 35.4998C36.5 34.8368 36.7634 34.2009 37.2322 33.7321C37.7011 33.2632 38.337 32.9998 39 32.9998H46.5C47.163 32.9998 47.7989 32.7364 48.2678 32.2676C48.7366 31.7988 49 31.1629 49 30.4998C49 29.8368 48.7366 29.2009 48.2678 28.7321C47.7989 28.2632 47.163 27.9998 46.5 27.9998H44C43.996 27.6731 43.9281 27.3504 43.8 27.0498C43.6796 26.7377 43.4918 26.4561 43.25 26.2248C42.9581 25.9406 42.6011 25.7319 42.2101 25.6171C41.8192 25.5023 41.4061 25.4848 41.0068 25.5662C40.6075 25.6475 40.2342 25.8252 39.9193 26.0838C39.6044 26.3424 39.3575 26.674 39.2 27.0498C39.0719 27.3504 39.0039 27.6731 39 27.9998C37.0109 27.9998 35.1032 28.79 33.6967 30.1965C32.2902 31.6031 31.5 33.5107 31.5 35.4998C31.5 37.489 32.2902 39.3966 33.6967 40.8031C35.1032 42.2097 37.0109 42.9998 39 42.9998H44C44.663 42.9998 45.2989 43.2632 45.7678 43.7321C46.2366 44.2009 46.5 44.8368 46.5 45.4998C46.5 46.1629 46.2366 46.7988 45.7678 47.2676C45.2989 47.7364 44.663 47.9998 44 47.9998H36.5C35.837 47.9998 35.2011 48.2632 34.7322 48.7321C34.2634 49.2009 34 49.8368 34 50.4998C34 51.1629 34.2634 51.7988 34.7322 52.2676C35.2011 52.7364 35.837 52.9998 36.5 52.9998H39C38.996 53.3249 39.0555 53.6475 39.175 53.9498C39.3109 54.2537 39.4968 54.5325 39.725 54.7748C39.9586 55.0065 40.2356 55.1898 40.5402 55.3143C40.8448 55.4387 41.171 55.5017 41.5 55.4998C42.163 55.4998 42.7989 55.2364 43.2678 54.7676C43.7366 54.2988 44 53.6629 44 52.9998C45.9891 52.9998 47.8968 52.2097 49.3033 50.8031C50.7098 49.3966 51.5 47.489 51.5 45.4998C51.5 43.5107 50.7098 41.6031 49.3033 40.1965C47.8968 38.79 45.9891 37.9998 44 37.9998Z" fill="white"/>
<path d="M41.5 13C36.061 13 30.7442 14.6128 26.2218 17.6346C21.6995 20.6563 18.1747 24.9512 16.0933 29.9762C14.0119 35.0012 13.4673 40.5305 14.5284 45.865C15.5895 51.1995 18.2086 56.0995 22.0546 59.9454C25.9005 63.7914 30.8005 66.4105 36.135 67.4716C41.4695 68.5327 46.9988 67.9881 52.0238 65.9067C57.0488 63.8253 61.3437 60.3005 64.3654 55.7782C67.3872 51.2558 69 45.939 69 40.5C69 33.2065 66.1027 26.2118 60.9454 21.0546C55.7882 15.8973 48.7935 13 41.5 13ZM41.5 63C37.0499 63 32.6998 61.6804 28.9997 59.2081C25.2996 56.7357 22.4157 53.2217 20.7127 49.1104C19.0097 44.999 18.5642 40.475 19.4323 36.1105C20.3005 31.7459 22.4434 27.7368 25.5901 24.5901C28.7368 21.4434 32.7459 19.3005 37.1105 18.4323C41.475 17.5642 45.999 18.0097 50.1104 19.7127C54.2217 21.4157 57.7357 24.2996 60.2081 27.9997C62.6804 31.6998 64 36.0499 64 40.5C64 46.4674 61.6295 52.1903 57.4099 56.4099C53.1903 60.6295 47.4674 63 41.5 63Z" fill="white"/>
</svg>
