<svg width="80" height="80" viewBox="0 0 80 80" fill="none" xmlns="http://www.w3.org/2000/svg">
<circle cx="40" cy="40" r="40" fill="white" fill-opacity="0.1"/>
<path d="M39.8116 13L16 26.7546V54.2547L39.8116 68L63.6049 54.2547V26.7546L39.8116 13ZM56.5553 50.1798L39.8116 59.8504L23.0587 50.1798V30.8201L39.8116 21.1495L56.5553 30.8201V50.1798Z" fill="white"/>
<path style="mix-blend-mode:multiply" d="M39.8116 68L63.6049 54.2547V26.7546L39.8116 13V21.1587L56.5553 30.8294V50.189L39.8116 59.8504V68Z" fill="white"/>
<path style="mix-blend-mode:multiply" d="M39.7931 13L16 26.7454V54.2455L39.7931 68V59.8413L23.0495 50.1706V30.8109L39.7931 21.1495V13Z" fill="white"/>
<path d="M50.9156 46.9255L39.8023 53.342L28.6798 46.9255V34.0835L39.8023 27.658L50.9156 34.0835L46.2897 36.757L39.8023 33.0049L33.315 36.757V44.2428L39.8023 47.9949L46.2897 44.2428L50.9156 46.9255Z" fill="white"/>
</svg>
