<svg width="80" height="80" viewBox="0 0 80 80" fill="none" xmlns="http://www.w3.org/2000/svg">
<circle opacity="0.1" cx="40" cy="40" r="40" fill="white"/>
<g clip-path="url(#clip0_106_17358)">
<path d="M65.5929 45.799H63.0134V40.4287C63.0134 36.9354 60.1224 34.0933 56.569 34.0933C53.0157 34.0933 50.1247 36.9354 50.1247 40.4287V45.799H47.5488C46.3624 45.799 45.4007 46.7607 45.4007 47.9471V61.482C43.8361 62.6139 42.1106 63.6249 40.2454 64.496C27.8175 58.6889 21.8477 46.7998 21.5656 27.2643C31.523 26.6806 37.5126 22.1428 40.2453 19.4211C42.978 22.1429 48.9676 26.6806 58.9251 27.2643C58.9158 27.9155 58.9004 28.5576 58.8787 29.1862C58.8379 30.372 59.766 31.3661 60.9516 31.4069C62.1376 31.4462 63.1315 30.5197 63.1723 29.334C63.2186 27.9888 63.2379 26.5866 63.2299 25.1666C63.2232 23.985 62.2634 23.0306 61.0818 23.0306C55.5383 23.0306 50.6491 21.6742 46.5501 18.999C43.5456 17.0382 42.0832 15.0429 42.009 14.9399C41.6092 14.3521 40.9565 14 40.2453 14C39.5341 14 38.8814 14.3521 38.4816 14.9399C38.4074 15.0428 36.945 17.0382 33.9405 18.999C29.8415 21.6742 24.9523 23.0306 19.4087 23.0306C18.2272 23.0306 17.2674 23.9849 17.2606 25.1665C17.1952 36.6716 18.8884 45.7357 22.4371 52.8769C24.2504 56.526 26.5947 59.7144 29.4047 62.3537C32.2028 64.9818 35.5619 67.1579 39.3887 68.8218C39.6619 68.9406 39.9536 69 40.2453 69C40.5369 69 40.8287 68.9406 41.1019 68.8219C44.0179 67.5539 46.6706 65.9858 48.986 64.1608C49.0274 64.1281 49.0654 64.0929 49.1037 64.058H65.593C66.7794 64.058 67.7411 63.0963 67.7411 61.9099V47.9472C67.741 46.7608 66.7793 45.799 65.5929 45.799ZM54.4211 40.4287C54.4211 39.3043 55.3847 38.3895 56.5692 38.3895C57.7536 38.3895 58.7173 39.3043 58.7173 40.4287V45.799H54.4211V40.4287ZM63.4448 59.7617H49.6969V50.0952H63.4448V59.7617Z" fill="white"/>
</g>
<defs>
<clipPath id="clip0_106_17358">
<rect width="55" height="55" fill="white" transform="translate(15 14)"/>
</clipPath>
</defs>
</svg>
