<svg width="60" height="60" viewBox="0 0 60 60" fill="none" xmlns="http://www.w3.org/2000/svg">
<g clip-path="url(#clip0_106_17452)">
<path d="M10.2727 24.4241C8.23412 24.4241 6.57568 26.0826 6.57568 28.1211C6.57568 30.1596 8.23412 31.8181 10.2727 31.8181C12.3113 31.8181 13.9697 30.1596 13.9697 28.1211C13.9697 26.0826 12.3113 24.4241 10.2727 24.4241ZM10.2727 30.0604C9.20338 30.0604 8.3335 29.1906 8.3335 28.1212C8.3335 27.0519 9.20338 26.182 10.2727 26.182C11.3421 26.182 12.2119 27.0519 12.2119 28.1212C12.2119 29.1906 11.3421 30.0604 10.2727 30.0604Z" fill="#1A82FF"/>
<path d="M46.0302 28.1213C46.0302 30.1599 47.6886 31.8184 49.7272 31.8184C51.7658 31.8184 53.4242 30.1598 53.4242 28.1213C53.4242 26.0829 51.7658 24.4243 49.7272 24.4243C47.6886 24.4243 46.0302 26.0828 46.0302 28.1213ZM51.6664 28.1213C51.6664 29.1907 50.7965 30.0606 49.7272 30.0606C48.6578 30.0606 47.788 29.1907 47.788 28.1213C47.788 27.052 48.6578 26.1821 49.7272 26.1821C50.7965 26.1821 51.6664 27.052 51.6664 28.1213Z" fill="#1A82FF"/>
<path d="M58.2947 24.3369C58.0267 23.9321 57.4814 23.8215 57.0766 24.0894C56.6719 24.3574 56.5611 24.9028 56.8291 25.3076C57.7536 26.7033 58.2422 28.326 58.2422 30C58.2422 32.7 56.9776 35.1086 55.0112 36.6697C54.2645 34.4433 52.1688 32.8786 49.7271 32.8786C47.3086 32.8786 45.1984 34.4647 44.4456 36.6717C42.4778 35.1107 41.212 32.7012 41.212 30C41.212 25.3049 45.0319 21.485 49.7271 21.485C51.4011 21.485 53.0237 21.9736 54.4195 22.898C54.8242 23.166 55.3696 23.0551 55.6376 22.6505C55.9056 22.2457 55.7948 21.7004 55.3901 21.4323C53.7055 20.3167 51.7473 19.7271 49.727 19.7271C49.1215 19.7271 48.528 19.7802 47.951 19.8811C46.095 16.5913 43.4061 13.9007 40.1188 12.0469C40.2196 11.4704 40.2725 10.8776 40.2725 10.2727C40.2725 8.25246 39.6828 6.29414 38.5672 4.60957C38.2993 4.20492 37.7539 4.09418 37.3492 4.36207C36.9444 4.63008 36.8337 5.17547 37.1017 5.58012C38.0261 6.97605 38.5147 8.59863 38.5147 10.2727C38.5147 12.9727 37.2502 15.3812 35.2838 16.9424C34.537 14.7159 32.4414 13.1512 29.9996 13.1512C27.5811 13.1512 25.4709 14.7374 24.7182 16.9444C22.7504 15.3833 21.4847 12.9738 21.4847 10.2727C21.485 5.57766 25.3049 1.75781 30 1.75781C31.674 1.75781 33.2967 2.24637 34.6924 3.17086C35.097 3.43887 35.6425 3.32801 35.9105 2.92336C36.1785 2.51871 36.0677 1.97332 35.663 1.7052C33.9785 0.589687 32.0203 0 30 0C24.3356 0 19.7272 4.6084 19.7272 10.2728C19.7272 10.8783 19.7803 11.4714 19.8812 12.0483C16.5956 13.902 13.9037 16.5947 12.0486 19.8824C11.4657 19.7802 10.8721 19.7271 10.2728 19.7271C4.6084 19.7272 0 24.3355 0 30C0 35.6645 4.6084 40.2728 10.2728 40.2728C10.878 40.2728 11.4711 40.2198 12.0479 40.1189C13.9028 43.4075 16.5923 46.0971 19.8811 47.9521C19.7802 48.5289 19.7271 49.122 19.7271 49.7272C19.7272 55.3916 24.3356 60 30 60C35.6644 60 40.2728 55.3916 40.2728 49.7272C40.2728 49.1272 40.2196 48.533 40.1171 47.9494C43.4086 46.0938 46.0986 43.4096 47.9537 40.1191C48.53 40.2198 49.1224 40.2728 49.7271 40.2728C55.3916 40.2728 60 35.6645 60 30C60 27.9797 59.4103 26.0215 58.2947 24.3369ZM30 14.9093C31.8218 14.9093 33.3627 16.1804 33.7332 17.9238C32.6053 18.4765 31.3385 18.7879 30 18.7879C28.662 18.7879 27.3956 18.4767 26.2679 17.9245C26.6405 16.1998 28.1944 14.9093 30 14.9093ZM6.5407 37.6516C6.91324 35.927 8.46715 34.6365 10.2728 34.6365C12.0947 34.6365 13.6356 35.9077 14.006 37.6511C12.878 38.2037 11.6112 38.5151 10.2728 38.5151C8.93473 38.515 7.6684 38.2038 6.5407 37.6516ZM26.2679 57.3787C26.6405 55.6541 28.1944 54.3636 30 54.3636C31.8218 54.3636 33.3627 55.6348 33.7332 57.3782C32.6052 57.9308 31.3385 58.2422 30 58.2422C28.662 58.2422 27.3956 57.9311 26.2679 57.3787ZM39.6446 46.1941C39.3713 45.4498 39.0118 44.7349 38.5676 44.0641C38.2997 43.6594 37.7543 43.5486 37.3495 43.8166C36.9448 44.0846 36.834 44.6299 37.102 45.0348C38.0264 46.4306 38.5151 48.0533 38.5151 49.7273C38.5151 52.4272 37.2505 54.8359 35.2841 56.3971C34.5373 54.1706 32.4417 52.6061 30 52.6061C27.5815 52.6061 25.4713 54.1921 24.7186 56.3992C22.7508 54.8381 21.485 52.4285 21.485 49.7275C21.485 45.0323 25.3049 41.2125 30 41.2125C31.674 41.2125 33.2966 41.7011 34.6924 42.6254C35.097 42.8934 35.6425 42.7827 35.9105 42.3779C36.1785 41.9732 36.0677 41.4279 35.663 41.1599C33.9784 40.0443 32.0202 39.4547 29.9999 39.4547C25.577 39.4547 21.798 42.2643 20.3539 46.1925C17.6528 44.5835 15.4159 42.3475 13.8068 39.6466C17.7355 38.2028 20.5455 34.4236 20.5455 30.0004C20.5455 27.9802 19.9559 26.022 18.8404 24.3373C18.5722 23.9325 18.027 23.8219 17.6222 24.0898C17.2175 24.3578 17.1067 24.9032 17.3747 25.3079C18.2992 26.7039 18.7877 28.3266 18.7877 30.0005C18.7877 32.7005 17.5232 35.109 15.5568 36.6702C14.81 34.4438 12.7144 32.8792 10.2727 32.8792C7.85414 32.8792 5.74395 34.4653 4.99125 36.6723C3.02355 35.1107 1.75781 32.7012 1.75781 30C1.75781 25.3049 5.57766 21.485 10.2728 21.485C11.9468 21.485 13.5694 21.9736 14.9652 22.898C15.3697 23.166 15.9152 23.0551 16.1832 22.6505C16.4513 22.2457 16.3405 21.7004 15.9357 21.4323C15.2646 20.9879 14.5496 20.6285 13.805 20.355C15.4145 17.6539 17.6543 15.4153 20.3536 13.8068C21.7975 17.7354 25.5766 20.5455 29.9999 20.5455C34.4231 20.5455 38.2023 17.7355 39.6462 13.8069C42.3463 15.4152 44.5834 17.6516 46.1932 20.3536C42.2644 21.7973 39.4542 25.5766 39.4542 30C39.4542 34.4232 42.2644 38.2025 46.1931 39.6463C44.5839 42.3492 42.3483 44.5846 39.6446 46.1941ZM45.995 37.6515C46.3676 35.9269 47.9216 34.6364 49.7272 34.6364C51.549 34.6364 53.0899 35.9075 53.4605 37.6509C52.3325 38.2036 51.0657 38.515 49.7272 38.515C48.3892 38.515 47.1227 38.2038 45.995 37.6515Z" fill="#1A82FF"/>
<path d="M26.303 8.39405C26.303 10.4326 27.9614 12.0912 30 12.0912C32.0386 12.0912 33.697 10.4326 33.697 8.39405C33.697 6.35546 32.0386 4.69702 30 4.69702C27.9614 4.69702 26.303 6.35546 26.303 8.39405ZM31.9392 8.39405C31.9392 9.46339 31.0693 10.3334 30 10.3334C28.9307 10.3334 28.0608 9.46339 28.0608 8.39405C28.0608 7.32472 28.9307 6.45483 30 6.45483C31.0693 6.45483 31.9392 7.32472 31.9392 8.39405Z" fill="#1A82FF"/>
<path d="M30 44.1514C27.9614 44.1514 26.303 45.8099 26.303 47.8485C26.303 49.8871 27.9614 51.5456 30 51.5456C32.0386 51.5456 33.697 49.8871 33.697 47.8485C33.697 45.8099 32.0386 44.1514 30 44.1514ZM30 49.7876C28.9307 49.7876 28.0608 48.9177 28.0608 47.8484C28.0608 46.7791 28.9307 45.9091 30 45.9091C31.0693 45.9091 31.9392 46.7791 31.9392 47.8484C31.9392 48.9177 31.0693 49.7876 30 49.7876Z" fill="#1A82FF"/>
<g clip-path="url(#clip1_106_17452)">
<path d="M34.1813 27.3045H33.5924V25.5923C33.5924 23.6115 31.9808 22 30 22C28.0192 22 26.4077 23.6115 26.4077 25.5923V27.3045H25.8187C25.4755 27.3045 25.1973 27.5827 25.1973 27.926V33.3785C25.1973 33.7217 25.4755 34 25.8187 34H34.1813C34.5246 34 34.8028 33.7217 34.8028 33.3785V27.926C34.8028 27.5828 34.5246 27.3045 34.1813 27.3045ZM27.9165 25.5923C27.9165 24.4435 28.8512 23.5088 30 23.5088C31.1489 23.5088 32.0835 24.4435 32.0835 25.5923V27.3045H27.9165V25.5923ZM30.6773 30.859V31.9735C30.6773 32.3476 30.3741 32.6508 30 32.6508C29.626 32.6508 29.3228 32.3476 29.3228 31.9735V30.859C29.0708 30.6591 28.9091 30.3506 28.9091 30.004C28.9091 29.4014 29.3975 28.913 30 28.913C30.6026 28.913 31.091 29.4014 31.091 30.004C31.091 30.3506 30.9292 30.6591 30.6773 30.859Z" fill="#1A82FF"/>
</g>
</g>
<defs>
<clipPath id="clip0_106_17452">
<rect width="60" height="60" fill="white"/>
</clipPath>
<clipPath id="clip1_106_17452">
<rect width="12" height="12" fill="white" transform="translate(24 22)"/>
</clipPath>
</defs>
</svg>
