<svg width="60" height="60" viewBox="0 0 60 60" fill="none" xmlns="http://www.w3.org/2000/svg">
<path d="M57.3635 25.4882C56.2177 25.4882 55.2409 26.2229 54.8779 27.246H49.8635V26.2206C49.8635 25.7353 49.4703 25.3417 48.9846 25.3417C48.4994 25.3417 48.1057 25.7353 48.1057 26.2206V30.5052C48.1057 34.8883 46.6363 39.0154 43.968 42.1259C40.2413 46.4687 35.5428 49.771 30.0002 51.943C25.0449 50.0012 20.7516 47.1471 17.2378 43.4589C16.9027 43.1073 16.3465 43.0936 15.9949 43.4287C15.6438 43.7633 15.6301 44.3195 15.9647 44.6711C17.1778 45.9441 18.4797 47.1205 19.8635 48.2013V54.8777C18.8408 55.2403 18.1057 56.2171 18.1057 57.3634C18.1057 58.8172 19.2885 60.0001 20.7424 60.0001C22.1963 60.0001 23.3791 58.8172 23.3791 57.3634C23.3791 56.2176 22.6444 55.2403 21.6213 54.8777V49.489C24.0337 51.1488 26.6686 52.5381 29.5104 53.639C29.6688 53.6999 29.8345 53.7306 30.0007 53.7306C30.1664 53.7306 30.3321 53.6999 30.4896 53.639C36.3686 51.3621 41.3523 47.874 45.3024 43.2703C47.1297 41.1403 48.4463 38.5833 49.1824 35.8006H52.1532C52.5163 36.8237 53.4931 37.5584 54.6389 37.5584C56.0928 37.5584 57.2756 36.3755 57.2756 34.9217C57.2756 33.4678 56.0928 32.285 54.6389 32.285C53.4931 32.285 52.5163 33.0201 52.1532 34.0428H49.5646C49.7623 32.8892 49.8635 31.7055 49.8635 30.5052V29.0038H54.8779C55.2409 30.0268 56.2177 30.7616 57.3635 30.7616C58.8174 30.7616 60.0002 29.5787 60.0002 28.1249C60.0002 26.671 58.8174 25.4882 57.3635 25.4882ZM20.7424 58.2418C20.2576 58.2418 19.8635 57.8477 19.8635 57.3629C19.8635 56.8781 20.2576 56.484 20.7424 56.484C21.2272 56.484 21.6213 56.8781 21.6213 57.3629C21.6213 57.8477 21.2272 58.2418 20.7424 58.2418ZM54.6389 34.0428C55.1237 34.0428 55.5178 34.4369 55.5178 34.9217C55.5178 35.4064 55.1237 35.8006 54.6389 35.8006C54.1541 35.8006 53.76 35.4064 53.76 34.9217C53.76 34.4369 54.1541 34.0428 54.6389 34.0428ZM57.3635 29.0038C56.8787 29.0038 56.4846 28.6096 56.4846 28.1249C56.4846 27.6401 56.8787 27.246 57.3635 27.246C57.8483 27.246 58.2424 27.6401 58.2424 28.1249C58.2424 28.6096 57.8483 29.0038 57.3635 29.0038Z" fill="#1A82FF"/>
<path d="M11.8947 30.5051V14.5165C15.1187 13.7543 18.4681 12.3339 21.8565 10.2909C26.8795 7.26282 33.1207 7.26282 38.1437 10.2909C39.6516 11.1996 41.1512 11.9846 42.6358 12.6438C42.6523 12.6516 42.6687 12.6594 42.6861 12.6658C44.5208 13.4774 46.3322 14.0972 48.1056 14.5165V22.4605C48.1056 22.9461 48.4988 23.3394 48.9845 23.3394C49.4702 23.3394 49.8634 22.9461 49.8634 22.4605V14.1938C49.8634 13.5653 49.4304 13.0127 48.8334 12.88C47.2194 12.5211 45.5659 11.9819 43.8868 11.2705V5.12234C44.9099 4.75933 45.6447 3.78247 45.6447 2.6367C45.6447 1.18285 44.4618 0 43.0079 0C41.5541 0 40.3712 1.18285 40.3712 2.6367C40.3712 3.78247 41.1064 4.75933 42.129 5.12234V10.4681C41.1105 9.96864 40.0837 9.40789 39.0515 8.78579C33.4686 5.41988 26.5316 5.42034 20.9492 8.78579C17.6021 10.8031 14.3107 12.181 11.1668 12.88C10.5699 13.0127 10.1368 13.5653 10.1368 14.1938V19.5116H5.1225C4.75949 18.4885 3.78262 17.7538 2.63684 17.7538C1.18298 17.7538 0.00012207 18.9366 0.00012207 20.3905C0.00012207 21.8443 1.18298 23.0272 2.63684 23.0272C3.78262 23.0272 4.75949 22.2925 5.1225 21.2694H10.1368V26.3084H7.84711C7.4841 25.2853 6.50723 24.5506 5.36145 24.5506C3.90759 24.5506 2.72473 25.7334 2.72473 27.1873C2.72473 28.6411 3.90759 29.824 5.36145 29.824C6.50723 29.824 7.4841 29.0893 7.84711 28.0662H10.1368V30.5051C10.1368 34.7174 11.3536 38.6684 13.6548 41.9304C13.826 42.173 14.0979 42.3025 14.3739 42.3025C14.5488 42.3025 14.7259 42.2503 14.8797 42.1419C15.2762 41.8617 15.3709 41.3133 15.0912 40.9169C13.0002 37.9529 11.8947 34.3526 11.8947 30.5051ZM43.0079 1.7578C43.4927 1.7578 43.8868 2.15193 43.8868 2.6367C43.8868 3.12147 43.4927 3.5156 43.0079 3.5156C42.5232 3.5156 42.129 3.12147 42.129 2.6367C42.129 2.15193 42.5232 1.7578 43.0079 1.7578ZM2.63684 21.2694C2.15207 21.2694 1.75793 20.8752 1.75793 20.3905C1.75793 19.9057 2.15207 19.5116 2.63684 19.5116C3.12161 19.5116 3.51575 19.9057 3.51575 20.3905C3.51575 20.8752 3.12161 21.2694 2.63684 21.2694ZM5.36145 28.0662C4.87668 28.0662 4.48254 27.6721 4.48254 27.1873C4.48254 26.7025 4.87668 26.3084 5.36145 26.3084C5.84622 26.3084 6.24036 26.7025 6.24036 27.1873C6.24036 27.6721 5.84622 28.0662 5.36145 28.0662Z" fill="#1A82FF"/>
<path d="M20.3312 15.135C20.7661 14.9199 20.9446 14.3925 20.7295 13.9576C20.5143 13.5228 19.987 13.3442 19.5517 13.5594C17.8886 14.382 16.2187 15.0645 14.5891 15.5882C14.0287 15.7681 13.6525 16.2835 13.6525 16.8708V30.5052C13.6525 34.469 14.9713 38.1892 17.3658 40.9806C20.6439 44.8011 24.7303 47.782 29.5121 49.8419C29.6669 49.9088 29.8335 49.9422 30.0001 49.9422C30.1667 49.9422 30.3334 49.9088 30.4886 49.8419C35.2699 47.7825 39.3559 44.8015 42.6335 40.9815C45.0285 38.1892 46.3478 34.469 46.3478 30.5052V16.8708C46.3478 16.2835 45.9715 15.7681 45.4112 15.5882C42.7333 14.7281 39.983 13.4523 37.2365 11.7966C35.0538 10.4805 32.5517 9.78516 30.0001 9.78516C27.449 9.78516 24.9469 10.4805 22.7638 11.7966L22.577 11.9087C22.16 12.1573 22.0236 12.697 22.2722 13.114C22.5207 13.531 23.06 13.6674 23.477 13.4189C23.542 13.3799 23.607 13.341 23.6715 13.3021C25.5804 12.1513 27.769 11.543 30.0001 11.543C32.2317 11.543 34.4203 12.1513 36.3292 13.3021C39.0954 14.9697 41.8731 16.2698 44.59 17.1693V30.5048C44.59 34.0492 43.4213 37.3634 41.2996 39.8367C38.2449 43.3967 34.4441 46.1885 30.0001 48.1372C25.5557 46.1881 21.7549 43.3962 18.7002 39.8362C16.5785 37.3629 15.4103 34.0492 15.4103 30.5048V17.1693C17.0321 16.6323 18.686 15.9484 20.3312 15.135Z" fill="#1A82FF"/>
<path d="M30 20.5663C27.5771 20.5663 25.6055 22.5374 25.6055 24.9608V26.4256H25.3125C24.1818 26.4256 23.2617 27.3457 23.2617 28.4764V35.5076C23.2617 36.6383 24.1818 37.5584 25.3125 37.5584H34.6875C35.8182 37.5584 36.7383 36.6383 36.7383 35.5076V28.4764C36.7383 27.3457 35.8182 26.4256 34.6875 26.4256H34.3946V24.9608C34.3946 22.5374 32.4234 20.5663 30 20.5663ZM27.3633 24.9608C27.3633 23.5069 28.5462 22.3241 30 22.3241C31.4539 22.3241 32.6367 23.5069 32.6367 24.9608V26.4256H27.3633V24.9608ZM34.9805 28.4764V35.5076C34.9805 35.6692 34.8491 35.8006 34.6875 35.8006H25.3125C25.1509 35.8006 25.0195 35.6692 25.0195 35.5076V28.4764C25.0195 28.3148 25.1509 28.1834 25.3125 28.1834H34.6875C34.8491 28.1834 34.9805 28.3148 34.9805 28.4764Z" fill="#1A82FF"/>
<path d="M30 28.4763C28.5461 28.4763 27.3633 29.6592 27.3633 31.113C27.3633 32.2588 28.0985 33.2357 29.1211 33.5987V34.6286C29.1211 35.1138 29.5148 35.5075 30 35.5075C30.4857 35.5075 30.8789 35.1138 30.8789 34.6286V33.5987C31.902 33.2357 32.6367 32.2588 32.6367 31.113C32.6367 29.6592 31.4539 28.4763 30 28.4763ZM30 31.9919C29.5152 31.9919 29.1211 31.5978 29.1211 31.113C29.1211 30.6282 29.5152 30.2341 30 30.2341C30.4848 30.2341 30.8789 30.6282 30.8789 31.113C30.8789 31.5978 30.4848 31.9919 30 31.9919Z" fill="#1A82FF"/>
</svg>
