<svg width="60" height="60" viewBox="0 0 60 60" fill="none" xmlns="http://www.w3.org/2000/svg">
<path d="M55.0397 38.3542C55.0397 41.8144 52.2342 44.6199 48.774 44.6199H7.86774L16.1174 36.3702L13.1641 33.4168L1.34917 45.2318C0.533838 46.0476 0.533838 47.3693 1.34917 48.1851L13.1641 60L16.1174 57.0467L7.86774 48.797H48.774C54.5385 48.7899 59.2097 44.1186 59.2168 38.3542V30H55.0397V38.3542Z" fill="#1A82FF"/>
<path d="M4.91441 21.6458C4.91441 18.1851 7.71938 15.3801 11.1801 15.3801H52.0864L43.8367 23.6298L46.79 26.5832L58.605 14.7683C59.4203 13.9524 59.4203 12.6308 58.605 11.8149L46.79 0L43.8367 2.95335L52.0864 11.203H11.1801C5.41565 11.2097 0.743933 15.8814 0.737305 21.6458V30H4.91441V21.6458Z" fill="#1A82FF"/>
</svg>
