<svg width="60" height="65" viewBox="0 0 60 65" fill="none" xmlns="http://www.w3.org/2000/svg">
<path d="M60 16.4515C60 13.5707 57.6566 11.2273 54.7758 11.2273C53.2968 11.2273 51.9601 11.8463 51.0088 12.8375L30.6217 1.06705C30.2369 0.845001 29.7631 0.845001 29.3783 1.06705L8.99074 12.8375C8.03939 11.8463 6.70322 11.2273 5.22419 11.2273C2.3434 11.2273 0 13.5707 0 16.4515C0 18.9033 1.69815 20.9649 3.98034 21.5246V45.0573C3.98034 45.5014 4.21745 45.9119 4.60227 46.1345L24.983 57.9015C24.848 58.3651 24.7741 58.8548 24.7741 59.3616C24.7741 62.2419 27.1175 64.5858 29.9983 64.5858C32.8786 64.5858 35.222 62.2419 35.222 59.3616C35.222 58.8553 35.1486 58.3665 35.0136 57.903L55.3977 46.1345C55.7826 45.9124 56.0197 45.5014 56.0197 45.0573V21.5246C58.3018 20.9649 60 18.9033 60 16.4515ZM2.48771 16.4515C2.48771 14.9424 3.71505 13.715 5.22419 13.715C6.73285 13.715 7.96019 14.9424 7.96019 16.4515C7.96019 17.9602 6.73285 19.188 5.22419 19.188C3.71505 19.188 2.48771 17.9602 2.48771 16.4515ZM29.9983 62.0981C28.4892 62.0981 27.2618 60.8708 27.2618 59.3616C27.2618 57.8529 28.4892 56.6251 29.9983 56.6251C31.507 56.6251 32.7348 57.8529 32.7348 59.3616C32.7348 60.8708 31.507 62.0981 29.9983 62.0981ZM33.7678 55.7501C32.8159 54.7574 31.4788 54.1374 29.9983 54.1374C28.5188 54.1374 27.1816 54.7569 26.2303 55.7486L6.46805 44.3391V21.5246C8.74975 20.9649 10.4479 18.9033 10.4479 16.4515C10.4479 15.9442 10.374 15.454 10.2385 14.9895L29.9998 3.58051L49.7615 14.9895C49.626 15.454 49.5521 15.9438 49.5521 16.4515C49.5521 18.9033 51.2503 20.9649 53.532 21.5246V44.3391L33.7678 55.7501ZM54.7758 19.188C53.2671 19.188 52.0393 17.9602 52.0393 16.4515C52.0393 14.9424 53.2671 13.715 54.7758 13.715C56.285 13.715 57.5123 14.9424 57.5123 16.4515C57.5123 17.9602 56.285 19.188 54.7758 19.188Z" fill="#1A82FF"/>
<path d="M47.0408 20.1962L30.6218 10.7171C30.237 10.4951 29.7633 10.4951 29.3785 10.7171L12.9596 20.1962C12.5748 20.4187 12.3376 20.8293 12.3376 21.2734V40.232C12.3376 40.6761 12.5748 41.0871 12.9596 41.3092L29.3785 50.7887C29.5709 50.8995 29.7852 50.9554 29.9999 50.9554C30.2152 50.9554 30.4294 50.8995 30.6218 50.7887L47.0408 41.3092C47.4256 41.0871 47.6627 40.6761 47.6627 40.232V21.2734C47.6627 20.8293 47.4256 20.4187 47.0408 20.1962ZM29.9999 13.2306L43.9311 21.2734L29.9999 29.3167L16.0692 21.2734L29.9999 13.2306ZM31.2438 47.5571V41.9476C31.2438 41.2606 30.687 40.7038 29.9999 40.7038C29.3134 40.7038 28.7566 41.2606 28.7566 41.9476V47.5571L14.8254 39.5139V23.4278L29.3785 31.8301C29.5709 31.9409 29.7852 31.9968 29.9999 31.9968C30.2152 31.9968 30.4294 31.9409 30.6218 31.8301L45.175 23.4278V39.5139L31.2438 47.5571Z" fill="#1A82FF"/>
<path d="M29.9988 35.1064C29.6704 35.1064 29.3507 35.239 29.1179 35.4708C28.8867 35.7021 28.7535 36.0228 28.7535 36.3502C28.7535 36.6772 28.8867 36.9979 29.1179 37.2292C29.3507 37.461 29.6704 37.5941 29.9988 37.5941C30.3258 37.5941 30.647 37.461 30.8783 37.2292C31.1096 36.9979 31.2427 36.6772 31.2427 36.3502C31.2427 36.0228 31.1096 35.7021 30.8783 35.4708C30.647 35.239 30.3258 35.1064 29.9988 35.1064Z" fill="#1A82FF"/>
</svg>
