<svg width="60" height="46" viewBox="0 0 60 46" fill="none" xmlns="http://www.w3.org/2000/svg">
<path d="M56.2249 22.6913L51.5082 11.0712C50.8383 9.4174 49.7308 7.97721 48.3046 6.90504L47.674 5.41897C47.0265 3.82404 45.8446 2.50384 44.3308 1.68449C42.817 0.86513 41.0654 0.597591 39.376 0.927693C37.6866 1.25779 36.1645 2.165 35.0705 3.49392C33.9764 4.82285 33.3784 6.49082 33.379 8.21216V10.824C32.8285 12.0692 32.544 13.4156 32.5438 14.7771V28.94H27.4517V14.7738C27.4515 13.4123 27.1671 12.0659 26.6166 10.8207V8.20884C26.6164 6.48872 26.0187 4.82209 24.9255 3.49401C23.8323 2.16593 22.3117 1.25891 20.6237 0.928085C18.9357 0.597262 17.1852 0.863189 15.6716 1.68038C14.158 2.49758 12.9753 3.81527 12.3259 5.40808L11.691 6.90409C10.2649 7.97636 9.15742 9.41652 8.48737 11.0702L3.76971 22.6913C2.31738 24.2215 1.23737 26.0659 0.613599 28.0812C-0.0101738 30.0965 -0.160917 32.2285 0.173081 34.3116C0.507079 36.3947 1.31683 38.3727 2.53941 40.0919C3.76199 41.8112 5.3645 43.2255 7.22242 44.2249C9.08035 45.2243 11.1437 45.7819 13.2521 45.8544C15.3605 45.9269 17.4572 45.5123 19.3794 44.6428C21.3016 43.7734 22.9974 42.4725 24.3352 40.8412C25.6729 39.2099 26.6166 37.2922 27.0929 35.237H32.9008C33.3762 37.2934 34.3194 39.2125 35.6571 40.845C36.9948 42.4776 38.691 43.7797 40.6138 44.65C42.5366 45.5204 44.6342 45.9356 46.7436 45.8634C48.853 45.7912 50.9173 45.2335 52.7761 44.2337C54.6349 43.2339 56.2381 41.8189 57.461 40.0987C58.684 38.3785 59.4938 36.3994 59.8274 34.3153C60.1611 32.2312 60.0096 30.0983 59.3848 28.0822C58.76 26.0662 57.6787 24.2214 56.2249 22.6913ZM50.1911 11.6052L53.8909 20.7219C52.2674 19.6357 50.4306 18.9089 48.5035 18.5901C46.5763 18.2713 44.6033 18.3679 42.7165 18.8734C40.8297 19.379 39.0727 20.2818 37.5631 21.5214C36.0535 22.7609 34.8261 24.3087 33.9632 26.0611V14.7738C33.9641 13.2214 34.3939 11.6994 35.2051 10.3758C36.0162 9.05219 37.1772 7.97836 38.56 7.27279C39.9428 6.56722 41.4936 6.25733 43.0414 6.37731C44.5891 6.49729 46.0737 7.04248 47.3312 7.95272L47.344 7.96219C48.6147 8.88668 49.6011 10.1487 50.1911 11.6052ZM34.7983 8.20884C34.7978 6.83918 35.2662 5.51064 36.1256 4.44414C36.985 3.37764 38.1836 2.63746 39.522 2.34669C40.8605 2.05592 42.2581 2.23209 43.4826 2.84589C44.707 3.45969 45.6844 4.47414 46.2523 5.72054C44.2979 4.88576 42.1258 4.70641 40.061 5.20933C37.9962 5.71226 36.1498 6.87041 34.7983 8.51041V8.20884ZM19.1971 2.21106C20.7874 2.21293 22.312 2.8454 23.4366 3.96976C24.5613 5.09411 25.1941 6.61858 25.1963 8.20884V8.51041C23.8448 6.87026 21.9983 5.71205 19.9334 5.20919C17.8685 4.70634 15.6962 4.88591 13.7419 5.72101C14.2162 4.67248 14.9835 3.78337 15.9513 3.16066C16.9191 2.53796 18.0463 2.2082 19.1971 2.21106ZM9.80348 11.6056C10.393 10.1496 11.3787 8.88793 12.6487 7.96361C12.6563 7.95888 12.6634 7.95272 12.671 7.94751C13.9289 7.03914 15.4131 6.49569 16.9602 6.37704C18.5072 6.2584 20.057 6.56918 21.4387 7.27512C22.8203 7.98107 23.9803 9.05477 24.7907 10.3779C25.6011 11.701 26.0304 13.2222 26.0315 14.7738V26.0611C25.1685 24.3087 23.9411 22.7609 22.4315 21.5214C20.9219 20.2818 19.1649 19.379 17.2781 18.8734C15.3913 18.3679 13.4183 18.2713 11.4911 18.5901C9.56399 18.9089 7.72718 19.6357 6.10368 20.7219L9.80348 11.6056ZM13.7229 44.4422C11.2885 44.4422 8.90864 43.7203 6.88444 42.3678C4.86024 41.0153 3.28257 39.0929 2.35093 36.8437C1.41929 34.5945 1.17553 32.1196 1.65048 29.7319C2.12542 27.3442 3.29774 25.1509 5.01918 23.4295C6.74062 21.708 8.93387 20.5357 11.3216 20.0608C13.7093 19.5858 16.1842 19.8296 18.4334 20.7612C20.6826 21.6929 22.605 23.2705 23.9575 25.2947C25.31 27.3189 26.0319 29.6988 26.0319 32.1332C26.0278 35.3963 24.7296 38.5246 22.422 40.8318C20.1145 43.139 16.986 44.4367 13.7229 44.4403V44.4422ZM27.4522 33.8158V30.3598H32.5429V32.1313C32.544 32.6939 32.5797 33.2558 32.6499 33.8139L27.4522 33.8158ZM46.2717 44.4403C43.3586 44.4363 40.5411 43.4008 38.3187 41.5174C36.0964 39.634 34.6129 37.0244 34.1312 34.1514V30.115C34.5159 27.7984 35.5553 25.6401 37.1267 23.8949C38.6981 22.1497 40.736 20.8905 42.9998 20.2658C45.2636 19.6411 47.6588 19.6771 49.9028 20.3694C52.1468 21.0618 54.146 22.3816 55.6643 24.1732C57.1826 25.9647 58.1567 28.1533 58.4717 30.4804C58.7867 32.8076 58.4294 35.1763 57.4419 37.307C56.4545 39.4377 54.8781 41.2415 52.8988 42.5054C50.9196 43.7694 48.6201 44.4408 46.2717 44.4403Z" fill="#1A82FF"/>
<path d="M46.2716 22.5645C44.379 22.5645 42.5288 23.1257 40.9552 24.1772C39.3816 25.2287 38.1551 26.7233 37.431 28.4719C36.7068 30.2205 36.5174 32.1445 36.8868 34.0008C37.2561 35.857 38.1677 37.562 39.5061 38.9001C40.8445 40.2383 42.5497 41.1495 44.4059 41.5185C46.2622 41.8875 48.1863 41.6977 49.9347 40.9732C51.6831 40.2486 53.1774 39.0219 54.2286 37.4481C55.2799 35.8742 55.8407 34.024 55.8404 32.1314C55.837 29.5948 54.8277 27.1631 53.0339 25.3696C51.2401 23.5761 48.8082 22.5673 46.2716 22.5645ZM46.2716 40.2818C44.66 40.2818 43.0847 39.804 41.7447 38.9087C40.4047 38.0134 39.3603 36.7409 38.7435 35.252C38.1267 33.7632 37.9652 32.1249 38.2795 30.5443C38.5937 28.9637 39.3696 27.5117 40.509 26.372C41.6484 25.2324 43.1002 24.4562 44.6807 24.1415C46.2612 23.8269 47.8996 23.988 49.3886 24.6044C50.8775 25.2209 52.1503 26.265 53.0459 27.6048C53.9415 28.9446 54.4197 30.5198 54.4201 32.1314C54.4181 34.2921 53.559 36.3637 52.0313 37.8917C50.5037 39.4198 48.4322 40.2793 46.2716 40.2818Z" fill="#1A82FF"/>
<path d="M13.7229 22.5645C11.8303 22.5645 9.98015 23.1257 8.40652 24.1772C6.8329 25.2287 5.60644 26.7233 4.88226 28.4719C4.15807 30.2205 3.96869 32.1445 4.33806 34.0008C4.70743 35.857 5.61895 37.562 6.95737 38.9001C8.29578 40.2383 10.001 41.1495 11.8572 41.5185C13.7135 41.8875 15.6376 41.6977 17.386 40.9732C19.1344 40.2486 20.6288 39.0219 21.68 37.4481C22.7312 35.8742 23.2921 34.024 23.2917 32.1314C23.2883 29.5948 22.279 27.1631 20.4852 25.3696C18.6914 23.5761 16.2595 22.5673 13.7229 22.5645ZM13.7229 40.2818C12.1113 40.2818 10.536 39.804 9.19598 38.9087C7.856 38.0134 6.81158 36.7409 6.19478 35.252C5.57798 33.7632 5.4165 32.1249 5.73076 30.5443C6.04502 28.9637 6.8209 27.5117 7.96031 26.372C9.09971 25.2324 10.5515 24.4562 12.132 24.1415C13.7125 23.8269 15.3509 23.988 16.8399 24.6044C18.3289 25.2209 19.6016 26.265 20.4972 27.6048C21.3928 28.9446 21.871 30.5198 21.8714 32.1314C21.8694 34.2921 21.0103 36.3637 19.4827 37.8917C17.955 39.4198 15.8836 40.2793 13.7229 40.2818Z" fill="#1A82FF"/>
</svg>
