<svg width="60" height="46" viewBox="0 0 60 46" fill="none" xmlns="http://www.w3.org/2000/svg">
<path d="M51.0438 0H2.94363C1.32047 0 0 1.32047 0 2.94363V35.0105C0 36.6336 1.32047 37.9541 2.94363 37.9541H19.917L19.1497 44.0919H17.9749C17.4561 44.0919 17.0354 44.5125 17.0354 45.0314C17.0354 45.5502 17.456 45.9709 17.9749 45.9709H22.9854C23.5042 45.9709 23.9249 45.5503 23.9249 45.0314C23.9249 44.5126 23.5043 44.0919 22.9854 44.0919H21.0434L21.8106 37.9541H22.9854C23.5042 37.9541 23.9249 37.5335 23.9249 37.0146C23.9249 36.4958 23.5043 36.0751 22.9854 36.0751H2.94363C2.35652 36.0751 1.87887 35.5975 1.87887 35.0104V31.9415H22.9854C23.5042 31.9415 23.9249 31.5209 23.9249 31.002C23.9249 30.4831 23.5043 30.0625 22.9854 30.0625H1.87887V2.94363C1.87887 2.35652 2.35652 1.87887 2.94363 1.87887H51.0438C51.631 1.87887 52.1086 2.35652 52.1086 2.94363V22.9854C52.1086 23.5042 52.5292 23.9249 53.0481 23.9249C53.5669 23.9249 53.9876 23.5043 53.9876 22.9854V2.94363C53.9875 1.32047 52.667 0 51.0438 0Z" fill="#1A82FF"/>
<path d="M43.0272 18.0376H28.998C27.3748 18.0376 26.0543 19.3581 26.0543 20.9812V43.0271C26.0543 44.6503 27.3748 45.9708 28.998 45.9708H43.0272C44.6503 45.9708 45.9708 44.6503 45.9708 43.0271V20.9812C45.9708 19.3581 44.6503 18.0376 43.0272 18.0376ZM44.0919 43.0271C44.0919 43.6143 43.6143 44.0919 43.0272 44.0919H28.998C28.4108 44.0919 27.9332 43.6143 27.9332 43.0271V41.9624H44.0918V43.0271H44.0919ZM44.0919 40.0835H27.9332V23.9249H44.0918V40.0835H44.0919ZM44.0919 22.0459H27.9332V20.9811C27.9332 20.394 28.4108 19.9163 28.998 19.9163H43.0272C43.6143 19.9163 44.0919 20.394 44.0919 20.9811V22.0459Z" fill="#1A82FF"/>
<path d="M57.0564 26.0543H51.0439C49.4207 26.0543 48.1002 27.3748 48.1002 28.998V43.0272C48.1002 44.6503 49.4207 45.9708 51.0439 45.9708H57.0564C58.6796 45.9708 60 44.6503 60 43.0272V28.998C60 27.3748 58.6796 26.0543 57.0564 26.0543ZM58.1212 43.0272C58.1212 43.6143 57.6435 44.0919 57.0564 44.0919H51.0439C50.4567 44.0919 49.9791 43.6143 49.9791 43.0272V41.9624H58.121V43.0272H58.1212ZM58.1212 40.0835H49.9792V31.9416H58.1212V40.0835ZM58.1212 30.0627H49.9792V28.998C49.9792 28.4108 50.4569 27.9332 51.044 27.9332H57.0565C57.6436 27.9332 58.1213 28.4108 58.1213 28.998V30.0627H58.1212Z" fill="#1A82FF"/>
</svg>
