<svg width="39" height="51" viewBox="0 0 39 51" fill="none" xmlns="http://www.w3.org/2000/svg">
<path d="M31.8116 16.1928L30.2234 14.8974L29.4838 16.8159C29.4697 16.8524 28.049 20.4641 25.8673 19.8062C25.3843 19.6604 25.0603 19.3794 24.8479 18.9216C24.3061 17.7548 24.5366 15.6428 25.435 13.541C26.6772 10.6347 26.1332 7.58939 23.8618 4.73405C22.2641 2.72566 20.3444 1.5098 20.2634 1.45897L17.9375 0L17.9894 2.75596C17.9902 2.8052 18.0403 7.70152 14.4345 9.497C12.2253 10.597 10.6438 12.4164 9.98122 14.6201C9.3615 16.6816 9.62174 18.9356 10.6953 20.804C11.1348 21.5688 11.268 22.2175 11.0913 22.7321C10.8388 23.4672 10.0231 23.8457 9.77897 23.9441C7.20113 24.9851 5.51367 21.5099 5.44546 21.3665L4.26956 18.8431L2.82856 21.2235C0.978016 24.2802 0 27.7978 0 31.3963C0 42.1271 8.62112 50.8702 19.2658 50.997C19.3435 50.999 19.4214 51 19.4997 51H19.4998H19.5C30.2524 51 39 42.2057 39 31.3963C39 25.4771 36.38 19.9356 31.8116 16.1928ZM13.4014 41.8787L13.4013 41.8602C13.3867 40.6702 13.6121 39.394 14.0729 38.0532L17.7382 39.1303L17.7752 37.1749C17.8317 34.1801 19.5115 32.3417 20.8544 31.3471C21.1987 32.8535 21.7356 34.1966 22.4769 35.4148C23.3223 36.8016 24.1229 37.9772 24.8612 39.0398C25.3356 39.7239 25.6047 40.7566 25.5993 41.8731V41.8803C25.5993 43.5174 24.9648 45.0569 23.8127 46.2152C22.6617 47.3724 21.13 48.0097 19.4998 48.0097C19.4996 48.0097 19.4995 48.0097 19.4993 48.0097C16.138 48.0094 13.4025 45.2602 13.4014 41.8787ZM27.6849 45.8247C28.2655 44.6099 28.5731 43.2706 28.5735 41.8834C28.5812 40.1409 28.1293 38.5237 27.3001 37.3281C26.4765 36.1429 25.7724 35.0982 25.0133 33.8529C24.167 32.4623 23.658 30.8234 23.4576 28.8428L23.2616 26.9067L21.4515 27.5959C21.2818 27.6605 19.7484 28.2684 18.1767 29.7019C16.51 31.2219 15.4341 33.1016 15.0076 35.2124L12.3493 34.4312L11.8245 35.6345C10.8746 37.8128 10.4044 39.9165 10.4272 41.888C10.4285 43.2989 10.7503 44.6358 11.3231 45.8292C6.34001 42.9649 2.9741 37.5684 2.9741 31.3961C2.9741 29.1508 3.42301 26.943 4.28503 24.9019C4.41718 25.0489 4.55776 25.1956 4.70677 25.3399C6.52837 27.1028 8.72323 27.5925 10.887 26.719C12.3487 26.1291 13.4478 25.0316 13.9024 23.7082C14.2261 22.766 14.3793 21.2377 13.2705 19.3081C12.5966 18.1353 12.4395 16.7776 12.828 15.4852C13.2503 14.0809 14.2894 12.9059 15.7543 12.1765C18.8372 10.6414 20.0975 7.75953 20.6115 5.57342C20.9359 5.89418 21.2692 6.25751 21.5825 6.65701C23.1105 8.60489 23.4873 10.5238 22.7023 12.3604C21.4468 15.2979 21.2412 18.2235 22.1526 20.1865C22.7252 21.4199 23.7142 22.2787 25.0125 22.6704C27.0534 23.2861 29.0494 22.5694 30.6331 20.6526C30.881 20.3526 31.0999 20.0471 31.2905 19.7535C34.3195 22.8481 36.0257 26.9992 36.0257 31.3961C36.0258 37.5652 32.6637 42.9592 27.6849 45.8247Z" fill="#1A82FF"/>
</svg>
