<svg width="347" height="347" viewBox="0 0 347 347" fill="none" xmlns="http://www.w3.org/2000/svg">
<circle cx="173.5" cy="173.5" r="173.5" fill="#1A82FF"/>
<path d="M285.959 267.213H188.496V180.996C188.496 178.927 186.816 177.247 184.747 177.247H162.256C160.186 177.247 158.507 178.927 158.507 180.996V267.213H143.513V203.487C143.513 201.418 141.833 199.739 139.764 199.739H117.273C115.203 199.739 113.524 201.418 113.524 203.487V267.213H98.5297V225.979C98.5297 223.91 96.8503 222.23 94.7811 222.23H72.2896C70.2204 222.23 68.541 223.91 68.541 225.979V267.213H61.0439C58.9747 267.213 57.2953 268.893 57.2953 270.962V285.956C57.2953 288.025 58.9747 289.705 61.0439 289.705H285.959C288.028 289.705 289.707 288.025 289.707 285.956V270.962C289.707 268.893 288.028 267.213 285.959 267.213ZM166.004 184.744H180.999V267.213H166.004V184.744ZM121.021 207.236H136.016V267.213H121.021V207.236ZM76.0382 229.727H91.0325V267.213H76.0382V229.727ZM282.21 282.208H64.7925V274.71H282.21V282.208Z" fill="white"/>
<path d="M225.982 218.482C228.051 218.482 229.73 216.802 229.73 214.733V203.487H222.233V211.363C213.69 213.102 207.239 220.678 207.239 229.727C207.239 239.324 214.485 247.256 223.793 248.343C226.698 255.162 233.408 259.716 240.976 259.716C248.544 259.716 255.254 255.162 258.16 248.343C267.467 247.256 274.713 239.324 274.713 229.727C274.713 220.675 268.262 213.102 259.719 211.363V203.487H252.222V214.733C252.222 216.802 253.901 218.482 255.97 218.482C262.17 218.482 267.216 223.527 267.216 229.727C267.216 235.928 262.171 240.973 256.229 240.984C256.09 240.966 255.712 240.924 255.577 240.921C253.864 240.861 252.259 242.038 251.824 243.74C250.55 248.733 246.089 252.219 240.976 252.219C235.863 252.219 231.402 248.733 230.128 243.743C229.693 242.041 228.107 240.853 226.375 240.924C226.154 240.932 225.94 240.954 225.982 240.973C219.782 240.973 214.736 235.928 214.736 229.727C214.736 223.527 219.782 218.482 225.982 218.482Z" fill="white"/>
<path d="M60.3841 207.09C62.0672 207.09 65.8758 205.92 78.0662 202.171L95.0023 196.961C135.738 184.429 168.684 153.346 183.623 113.521H195.993C197.425 113.521 198.729 112.704 199.359 111.418C199.985 110.133 199.828 108.599 198.95 107.471L172.71 73.7338C172.028 72.8529 170.99 72.3243 169.876 72.2868C168.786 72.2419 167.691 72.7104 166.953 73.5426L136.964 107.28C135.986 108.382 135.742 109.96 136.345 111.306C136.949 112.655 138.287 113.521 139.764 113.521H152.884C140.765 140.459 117.066 161.087 88.5322 169.24L60.0168 177.386C58.4049 177.847 57.2953 179.316 57.2953 180.992V203.483C57.2953 204.672 57.8576 205.793 58.8172 206.497C59.2933 206.846 59.6194 207.09 60.3841 207.09ZM64.7925 183.818L90.5902 176.449C123.15 167.148 149.848 142.723 162.004 111.118C162.451 109.964 162.297 108.671 161.596 107.651C160.899 106.631 159.744 106.024 158.507 106.024H148.112L169.562 81.8945L188.331 106.024H180.999C179.409 106.024 177.992 107.029 177.464 108.524C163.774 147.315 132.121 177.697 92.7981 189.794L75.862 195.004C71.3562 196.387 67.5514 197.557 64.7925 198.408V183.818Z" fill="white"/>
<path d="M206.151 207.075C206.511 207.183 206.875 207.236 207.239 207.236C208.468 207.236 209.649 206.629 210.357 205.568L223.597 185.708C225.67 186.532 227.807 187.173 229.989 187.634C230.544 192.433 232.167 197.036 234.873 201.092L237.853 205.564C238.554 206.61 239.724 207.236 240.976 207.236C242.228 207.236 243.397 206.61 244.095 205.568L247.075 201.096C249.781 197.036 251.404 192.436 251.959 187.638C254.145 187.177 256.281 186.536 258.35 185.711L271.59 205.571C272.303 206.629 273.484 207.236 274.713 207.236C275.077 207.236 275.44 207.183 275.8 207.075C277.378 206.599 278.462 205.137 278.462 203.487V180.996C278.462 174.061 274.522 167.756 268.573 164.528L270.608 157.74C273.334 148.668 274.713 139.259 274.713 129.783C274.713 103.794 264.592 79.3567 246.213 60.9811L243.626 58.3946C242.16 56.9289 239.791 56.9289 238.326 58.3946L235.739 60.9811C217.36 79.3567 207.239 103.79 207.239 129.779C207.239 139.255 208.618 148.664 211.343 157.736L213.379 164.528C207.43 167.756 203.49 174.061 203.49 180.996V203.487C203.49 205.137 204.573 206.599 206.151 207.075ZM240.976 196.725C238.524 192.961 237.227 188.602 237.227 184.1C237.227 179.665 238.539 175.433 240.976 171.849C243.412 175.437 244.724 179.665 244.724 184.1C244.724 188.602 243.427 192.961 240.976 196.725ZM270.964 180.996V191.106L263.816 180.385L266.35 171.939C269.173 174.02 270.964 177.367 270.964 180.996ZM240.976 66.3416C247.558 72.9391 252.975 80.3838 257.155 88.4208C246.524 86.9326 235.732 86.9101 224.789 88.4358C228.973 80.3913 234.39 72.9429 240.976 66.3416ZM221.048 96.6302C234.18 94.2123 247.783 94.2123 260.9 96.6302C265.034 107.044 267.216 118.241 267.216 129.779C267.216 138.524 265.941 147.206 263.426 155.584L256.607 178.316C255.082 178.987 253.5 179.504 251.892 179.924C251.003 173.671 248.169 167.891 243.626 163.347C242.16 161.882 239.791 161.882 238.326 163.347C233.782 167.891 230.945 173.671 230.06 179.924C228.452 179.5 226.87 178.983 225.344 178.312L218.526 155.58C216.01 147.21 214.736 138.528 214.736 129.779C214.736 118.241 216.917 107.044 221.048 96.6302ZM210.987 180.996C210.987 177.367 212.779 174.02 215.602 171.935L218.136 180.381L210.987 191.106V180.996Z" fill="white"/>
<path d="M240.976 139.761C251.311 139.761 259.719 131.353 259.719 121.018C259.719 110.684 251.311 102.276 240.976 102.276C230.641 102.276 222.233 110.684 222.233 121.018C222.233 131.353 230.641 139.761 240.976 139.761ZM240.976 109.773C247.176 109.773 252.222 114.818 252.222 121.018C252.222 127.219 247.176 132.264 240.976 132.264C234.776 132.264 229.73 127.219 229.73 121.018C229.73 114.818 234.776 109.773 240.976 109.773Z" fill="white"/>
</svg>
