<svg width="347" height="347" viewBox="0 0 347 347" fill="none" xmlns="http://www.w3.org/2000/svg">
<circle cx="173.5" cy="173.5" r="173.5" fill="#1A82FF"/>
<path d="M85.3884 265.515V273.6C85.3884 282.105 92.2833 289 100.788 289H138.646C147.151 289 154.046 282.105 154.046 273.6V265.9H192.546V273.6C192.546 282.105 199.44 289 207.946 289H245.803C254.308 289 261.203 282.105 261.203 273.6V265.577C270.445 264.015 277.219 256.023 277.246 246.65V77.25C277.233 66.6238 268.622 58.0127 257.996 58H89.25C78.6238 58.0127 70.0127 66.6238 70 77.25V92.65C70 94.7763 71.7237 96.5 73.85 96.5C75.9763 96.5 77.7 94.7763 77.7 92.65V77.25C77.7 70.8711 82.8711 65.7 89.25 65.7H257.996C264.374 65.7 269.546 70.8711 269.546 77.25V246.65C269.546 253.029 264.374 258.2 257.996 258.2H89.25C82.8711 258.2 77.7 253.029 77.7 246.65V111.9C77.7 109.774 75.9763 108.05 73.85 108.05C71.7237 108.05 70 109.774 70 111.9V246.65C70.0104 255.791 76.4363 263.668 85.3884 265.515ZM253.503 265.9V273.6C253.503 277.853 250.055 281.3 245.803 281.3H207.946C203.693 281.3 200.246 277.853 200.246 273.6V265.9H253.503ZM146.346 265.9V273.6C146.346 277.853 142.898 281.3 138.646 281.3H100.788C96.5359 281.3 93.0884 277.853 93.0884 273.6V265.9H146.346Z" fill="white"/>
<path d="M100.146 188.9C98.0192 188.9 96.2955 190.624 96.2955 192.75V227.4C96.2955 233.779 101.467 238.95 107.846 238.95H238.746C245.124 238.95 250.296 233.779 250.296 227.4V223.55C256.674 223.55 261.846 218.379 261.846 212V188.9C261.846 182.521 256.674 177.35 250.296 177.35V146.55C256.674 146.55 261.846 141.379 261.846 135V111.9C261.846 105.521 256.674 100.35 250.296 100.35V96.5C250.296 90.1211 245.124 84.95 238.746 84.95H107.846C101.467 84.95 96.2955 90.1211 96.2955 96.5V173.5C96.2955 175.626 98.0192 177.35 100.146 177.35C102.272 177.35 103.996 175.626 103.996 173.5V96.5C103.996 94.3737 105.719 92.65 107.846 92.65H238.746C240.872 92.65 242.596 94.3737 242.596 96.5V100.35C236.217 100.35 231.046 105.521 231.046 111.9V135C231.046 141.379 236.217 146.55 242.596 146.55V177.35C236.217 177.35 231.046 182.521 231.046 188.9V212C231.046 218.379 236.217 223.55 242.596 223.55V227.4C242.596 229.526 240.872 231.25 238.746 231.25H107.846C105.719 231.25 103.996 229.526 103.996 227.4V192.75C103.996 190.624 102.272 188.9 100.146 188.9ZM238.746 135V111.9C238.746 109.774 240.469 108.05 242.596 108.05H250.296C252.422 108.05 254.146 109.774 254.146 111.9V135C254.146 137.126 252.422 138.85 250.296 138.85H242.596C240.469 138.85 238.746 137.126 238.746 135ZM238.746 212V188.9C238.746 186.774 240.469 185.05 242.596 185.05H250.296C252.422 185.05 254.146 186.774 254.146 188.9V212C254.146 214.126 252.422 215.85 250.296 215.85H242.596C240.469 215.85 238.746 214.126 238.746 212Z" fill="white"/>
<path d="M130.614 179.629C139.049 199.993 160.693 211.562 182.311 207.262C203.928 202.963 219.498 183.991 219.498 161.95C219.498 139.909 203.928 120.937 182.311 116.638C160.693 112.338 139.049 123.907 130.614 144.271C125.888 155.583 125.888 168.317 130.614 179.629ZM155.077 128.039L156.479 131.42C156.985 132.719 158.156 133.643 159.538 133.835C160.92 134.026 162.297 133.455 163.138 132.342C163.979 131.228 164.152 129.747 163.59 128.47L162.192 125.09C169.431 122.888 177.16 122.888 184.399 125.09L183.001 128.47C182.439 129.747 182.612 131.228 183.453 132.342C184.294 133.455 185.671 134.026 187.053 133.835C188.435 133.643 189.606 132.719 190.112 131.42L191.514 128.035C198.188 131.598 203.653 137.064 207.214 143.74L203.834 145.141C202.534 145.648 201.61 146.818 201.419 148.2C201.227 149.582 201.798 150.959 202.912 151.8C204.025 152.641 205.506 152.814 206.783 152.252L210.163 150.854C212.365 158.093 212.365 165.823 210.163 173.061L206.783 171.664C205.506 171.102 204.025 171.275 202.912 172.115C201.798 172.956 201.227 174.334 201.419 175.716C201.61 177.098 202.534 178.268 203.834 178.775L207.218 180.176C203.655 186.85 198.189 192.315 191.514 195.876L190.112 192.496C189.606 191.196 188.435 190.272 187.053 190.081C185.671 189.889 184.294 190.461 183.453 191.574C182.612 192.687 182.439 194.168 183.001 195.445L184.399 198.825C177.16 201.027 169.431 201.027 162.192 198.825L163.59 195.445C164.152 194.168 163.979 192.687 163.138 191.574C162.297 190.461 160.92 189.889 159.538 190.081C158.156 190.272 156.985 191.196 156.479 192.496L155.077 195.88C148.403 192.317 142.938 186.851 139.377 180.176L142.757 178.775C144.057 178.268 144.981 177.098 145.173 175.716C145.364 174.334 144.793 172.956 143.679 172.115C142.566 171.275 141.085 171.102 139.808 171.664L136.428 173.061C134.226 165.823 134.226 158.093 136.428 150.854L139.808 152.252C141.085 152.814 142.566 152.641 143.679 151.8C144.793 150.959 145.364 149.582 145.173 148.2C144.981 146.818 144.057 145.648 142.757 145.141L139.373 143.74C142.935 137.062 148.401 131.595 155.077 128.032V128.039Z" fill="white"/>
<path d="M173.326 185.05C183.499 185.034 192.465 178.365 195.405 168.626C198.345 158.887 194.567 148.371 186.102 142.729C177.637 137.086 166.477 137.646 158.619 144.107C150.761 150.568 148.055 161.409 151.955 170.805C155.547 179.435 163.979 185.055 173.326 185.05ZM167.401 147.705C175.26 144.463 184.259 148.202 187.506 156.058C190.754 163.914 187.021 172.916 179.167 176.169C171.313 179.422 162.309 175.696 159.05 167.844C157.472 164.068 157.466 159.817 159.034 156.036C160.601 152.255 163.613 149.256 167.401 147.705Z" fill="white"/>
<path d="M134.796 100.35H115.546C113.419 100.35 111.696 102.074 111.696 104.2V123.45C111.696 125.576 113.419 127.3 115.546 127.3C117.672 127.3 119.396 125.576 119.396 123.45V108.05H134.796C136.922 108.05 138.646 106.326 138.646 104.2C138.646 102.074 136.922 100.35 134.796 100.35Z" fill="white"/>
</svg>
